<svg width="2038" height="1240" viewBox="0 0 2038 1240" fill="none" xmlns="http://www.w3.org/2000/svg">
<g filter="url(#filter0_f_3_15)">
<path d="M-567.273 1294C-650.233 1278.49 -657.61 1125.58 -657.61 1125.58C-657.61 1125.58 -671.554 1069.23 -532.715 1027.94C-393.876 986.656 -191.983 719.942 -191.983 719.942C-85.979 547.599 63.6542 444.599 474.324 250.735C886.233 202.939 1096.39 296.57 1452.87 569.874C1773.92 635.089 1946.34 597.39 2220.42 202.242C2317 120.849 2377.71 41.6326 2501.74 -180.464C2781.79 -329.316 2796.69 -234.552 2723.64 59.3824L2327.74 569.874C2173.56 777.208 2017.59 857.434 1588.67 922.435C1276.26 881.799 1110.9 815.498 838.701 596.087C571.453 485.801 421.085 502.464 151.174 784.163C-97.9318 1022.59 -77.606 1291.42 -567.273 1294Z" fill="url(#paint0_linear_3_15)"/>
<path d="M-503.2 1223.94C-586.16 1208.42 -588.607 1157.22 -588.607 1157.22C-588.607 1157.22 -592.663 1095.08 -453.824 1053.79C-314.984 1012.51 -168.911 726.176 -168.911 726.176C-168.911 726.176 72.983 472.988 483.653 279.123C895.561 231.327 1037.96 346.113 1394.44 619.417C1715.49 684.632 1971.09 615.554 2245.17 220.406C2341.76 139.013 2369.98 130.516 2494 -91.5804C2733.13 -176.811 2686.07 -142.518 2650.19 93.6301C2553.6 235.377 2476.07 335.844 2302.56 546.688C2148.38 754.021 2001.51 826.652 1572.59 891.652C1260.18 851.017 1123.5 772.104 851.303 552.693C584.055 442.407 354.552 485.846 84.6414 767.545C-202.802 987.773 -56.4835 1200.97 -503.2 1223.94Z" fill="url(#paint1_linear_3_15)"/>
<path d="M-503.187 1201.34C-586.148 1185.83 -551.908 1123.19 -551.908 1123.19C-551.908 1123.19 -552.977 1035.01 -439.812 1046.45C-326.646 1057.89 -204.296 793.981 -140.22 736.185C-76.1433 678.388 122.495 485.35 475.646 314.487C843.007 276.199 978.5 393.349 1403.11 652.112C1765.01 651.245 1802.84 784.11 2248.51 267.78C2345.09 186.388 2398.05 148.248 2522.08 -73.8479C2691.69 -75.4875 2582.09 -73.6859 2617.49 78.9507C2520.9 220.698 2468.08 313.245 2294.56 524.089C2111.17 729.399 1975.28 789.919 1575.93 856.956C1270.47 800.164 1127.36 740.558 851.316 530.094C584.068 419.808 319.855 454.486 49.9446 736.185C-237.498 956.413 -56.4712 1178.37 -503.187 1201.34Z" fill="url(#paint2_linear_3_15)"/>
<path d="M-455.158 1165.22C-538.118 1149.71 -600.968 1158.39 -552.247 1123.44C-503.526 1088.49 -484.251 1065.04 -371.086 1076.48C-257.92 1087.92 -158.256 805.324 -94.1798 747.528C-30.1036 689.731 138.509 528.053 491.659 357.191C859.021 318.902 818.362 408.029 1242.97 666.792C1604.87 665.925 1763.47 897.541 2209.14 381.212C2305.72 299.819 2338.67 313.725 2462.7 91.6283C2587.49 158.117 2396.52 171.054 2518.74 191.715C2422.15 333.462 2353.96 307.153 2180.45 517.997C1997.06 723.307 2014.65 716.522 1615.3 783.559C1309.83 726.767 1170.72 693.097 894.674 482.633C660.676 216.736 307.459 498.935 9.24286 716.168C-288.973 933.4 -233.793 1228.24 -455.158 1165.22Z" fill="white"/>
</g>
<defs>
<filter id="filter0_f_3_15" x="-729.1" y="-321.1" width="3561.15" height="1686.2" filterUnits="userSpaceOnUse" color-interpolation-filters="sRGB">
<feFlood flood-opacity="0" result="BackgroundImageFix"/>
<feBlend mode="normal" in="SourceGraphic" in2="BackgroundImageFix" result="shape"/>
<feGaussianBlur stdDeviation="35.55" result="effect1_foregroundBlur_3_15"/>
</filter>
<linearGradient id="paint0_linear_3_15" x1="2538.76" y1="83.9319" x2="-810.644" y2="1294.31" gradientUnits="userSpaceOnUse">
<stop stop-color="#0D47A1"/>
<stop offset="1" stop-color="#051A3B"/>
</linearGradient>
<linearGradient id="paint1_linear_3_15" x1="2658.2" y1="-11.7943" x2="-588.607" y2="1088.49" gradientUnits="userSpaceOnUse">
<stop stop-color="#64B5F6"/>
<stop offset="1" stop-color="#1565C0"/>
</linearGradient>
<linearGradient id="paint2_linear_3_15" x1="2658.21" y1="-34.3914" x2="-588.594" y2="1065.89" gradientUnits="userSpaceOnUse">
<stop stop-color="#E3F2FD"/>
<stop offset="1" stop-color="#90CAF9"/>
</linearGradient>
</defs>
</svg>
