<svg width="1014" height="659" viewBox="0 0 1014 659" fill="none" xmlns="http://www.w3.org/2000/svg">
<g opacity="0.7" clip-path="url(#clip0_14_32)">
<rect width="1014" height="659" fill="url(#paint0_linear_14_32)" fill-opacity="0.2"/>
<g filter="url(#filter1_f_14_32)">
<ellipse cx="258.518" cy="633.964" rx="181" ry="294.5" transform="rotate(22.1051 258.518 633.964)" fill="#424040"/>
<ellipse cx="731.823" cy="134.922" rx="130.598" ry="294.5" transform="rotate(8.73846 731.823 134.922)" fill="#424040"/>
<path fill-rule="evenodd" clip-rule="evenodd" d="M-27.9998 289.999C52.4913 222.509 103.381 194.756 208 169.499C302.493 167.709 355.389 173.821 448.5 289.999C515.748 405.761 541.411 475.157 564.5 607.499C634.361 854.767 704.183 841.879 871.5 607.499C1035.54 399.809 1081.72 314.262 1152.5 169.499C1150.26 105.415 1141.29 83.1486 1071 139.499C984.731 313.296 923.122 404.003 793 555.499C668.681 755.955 620.954 725.703 573 429.999C519.076 290.3 478.876 216.529 400.5 87.9993C133.968 -70.0432 -22.6624 55.6855 -74.3853 97.2038C-74.9353 97.6453 -75.4735 98.0773 -75.9998 98.4993C-126.018 138.607 -209.036 302.461 -27.9998 289.999Z" fill="#717171" stroke="black"/>
</g>
</g>
<path d="M166.648 354L178.936 319.92H184.504L196.792 354H192.28L188.872 344.304H174.568L171.16 354H166.648ZM175.96 340.272H187.48L181.72 323.52L175.96 340.272ZM201.229 354V319.92H205.357V354H201.229ZM225.59 361.2V328.56H229.334L229.43 334.032L228.854 333.744C229.494 331.856 230.55 330.432 232.022 329.472C233.526 328.48 235.254 327.984 237.206 327.984C239.734 327.984 241.798 328.608 243.398 329.856C245.03 331.104 246.23 332.736 246.998 334.752C247.798 336.768 248.198 338.944 248.198 341.28C248.198 343.616 247.798 345.792 246.998 347.808C246.23 349.824 245.03 351.456 243.398 352.704C241.798 353.952 239.734 354.576 237.206 354.576C235.894 354.576 234.662 354.352 233.51 353.904C232.39 353.456 231.43 352.832 230.63 352.032C229.862 351.232 229.334 350.288 229.046 349.2L229.622 348.528V361.2H225.59ZM236.822 350.736C239.03 350.736 240.774 349.904 242.054 348.24C243.334 346.576 243.974 344.256 243.974 341.28C243.974 338.304 243.334 335.984 242.054 334.32C240.774 332.656 239.03 331.824 236.822 331.824C235.35 331.824 234.07 332.176 232.982 332.88C231.926 333.584 231.094 334.64 230.486 336.048C229.91 337.456 229.622 339.2 229.622 341.28C229.622 343.36 229.91 345.104 230.486 346.512C231.062 347.92 231.894 348.976 232.982 349.68C234.07 350.384 235.35 350.736 236.822 350.736ZM253.668 354V328.56H257.22L257.412 334.992L257.028 334.848C257.348 332.672 258.036 331.088 259.092 330.096C260.18 329.072 261.62 328.56 263.412 328.56H265.908V332.4H263.46C262.18 332.4 261.108 332.64 260.244 333.12C259.412 333.568 258.772 334.256 258.324 335.184C257.908 336.08 257.7 337.232 257.7 338.64V354H253.668ZM279.87 354.576C277.47 354.576 275.39 354.032 273.63 352.944C271.902 351.856 270.558 350.32 269.598 348.336C268.67 346.32 268.206 343.968 268.206 341.28C268.206 338.592 268.67 336.256 269.598 334.272C270.558 332.288 271.886 330.752 273.582 329.664C275.31 328.544 277.342 327.984 279.678 327.984C281.886 327.984 283.838 328.512 285.534 329.568C287.23 330.592 288.542 332.096 289.47 334.08C290.43 336.064 290.91 338.48 290.91 341.328V342.528H272.43C272.59 345.248 273.31 347.296 274.59 348.672C275.902 350.048 277.662 350.736 279.87 350.736C281.534 350.736 282.894 350.352 283.95 349.584C285.038 348.784 285.79 347.744 286.206 346.464L290.526 346.8C289.854 349.072 288.574 350.944 286.686 352.416C284.83 353.856 282.558 354.576 279.87 354.576ZM272.43 338.976H286.494C286.302 336.512 285.582 334.704 284.334 333.552C283.118 332.4 281.566 331.824 279.678 331.824C277.726 331.824 276.11 332.432 274.83 333.648C273.582 334.832 272.782 336.608 272.43 338.976ZM305.635 354.576C303.363 354.576 301.427 354.208 299.827 353.472C298.259 352.736 297.027 351.728 296.131 350.448C295.267 349.136 294.771 347.648 294.643 345.984L298.867 345.696C299.123 347.232 299.779 348.464 300.835 349.392C301.891 350.288 303.491 350.736 305.635 350.736C307.363 350.736 308.739 350.464 309.763 349.92C310.819 349.344 311.347 348.432 311.347 347.184C311.347 346.512 311.187 345.952 310.867 345.504C310.547 345.056 309.923 344.672 308.995 344.352C308.067 344 306.691 343.664 304.867 343.344C302.435 342.896 300.515 342.352 299.107 341.712C297.731 341.04 296.739 340.224 296.131 339.264C295.555 338.272 295.267 337.104 295.267 335.76C295.267 333.488 296.099 331.632 297.763 330.192C299.427 328.72 301.795 327.984 304.867 327.984C306.947 327.984 308.691 328.368 310.099 329.136C311.539 329.872 312.659 330.864 313.459 332.112C314.291 333.328 314.835 334.672 315.091 336.144L310.867 336.432C310.675 335.536 310.323 334.752 309.811 334.08C309.299 333.376 308.627 332.832 307.795 332.448C306.963 332.032 305.971 331.824 304.819 331.824C302.995 331.824 301.651 332.176 300.787 332.88C299.923 333.584 299.491 334.48 299.491 335.568C299.491 336.4 299.683 337.088 300.067 337.632C300.483 338.144 301.139 338.576 302.035 338.928C302.931 339.248 304.131 339.536 305.635 339.792C308.227 340.24 310.243 340.784 311.683 341.424C313.123 342.064 314.131 342.848 314.707 343.776C315.283 344.704 315.571 345.84 315.571 347.184C315.571 348.752 315.123 350.096 314.227 351.216C313.363 352.304 312.179 353.136 310.675 353.712C309.203 354.288 307.523 354.576 305.635 354.576ZM331.01 354.576C328.61 354.576 326.53 354.032 324.77 352.944C323.042 351.856 321.698 350.32 320.738 348.336C319.81 346.32 319.346 343.968 319.346 341.28C319.346 338.592 319.81 336.256 320.738 334.272C321.698 332.288 323.026 330.752 324.722 329.664C326.45 328.544 328.482 327.984 330.818 327.984C333.026 327.984 334.978 328.512 336.674 329.568C338.37 330.592 339.682 332.096 340.61 334.08C341.57 336.064 342.05 338.48 342.05 341.328V342.528H323.57C323.73 345.248 324.45 347.296 325.73 348.672C327.042 350.048 328.802 350.736 331.01 350.736C332.674 350.736 334.034 350.352 335.09 349.584C336.178 348.784 336.93 347.744 337.346 346.464L341.666 346.8C340.994 349.072 339.714 350.944 337.826 352.416C335.97 353.856 333.698 354.576 331.01 354.576ZM323.57 338.976H337.634C337.442 336.512 336.722 334.704 335.474 333.552C334.258 332.4 332.706 331.824 330.818 331.824C328.866 331.824 327.25 332.432 325.97 333.648C324.722 334.832 323.922 336.608 323.57 338.976ZM347.512 354V328.56H351.208L351.352 335.04L350.872 334.608C351.192 333.104 351.752 331.872 352.552 330.912C353.352 329.92 354.312 329.184 355.432 328.704C356.584 328.224 357.816 327.984 359.128 327.984C361.08 327.984 362.68 328.416 363.928 329.28C365.208 330.144 366.152 331.312 366.76 332.784C367.4 334.224 367.72 335.84 367.72 337.632V354H363.688V338.784C363.688 337.216 363.496 335.904 363.112 334.848C362.76 333.76 362.184 332.944 361.384 332.4C360.584 331.824 359.544 331.536 358.264 331.536C356.312 331.536 354.696 332.16 353.416 333.408C352.168 334.624 351.544 336.416 351.544 338.784V354H347.512ZM382.793 354C380.489 354 378.777 353.472 377.657 352.416C376.569 351.36 376.025 349.712 376.025 347.472V322.608H380.057V347.376C380.057 348.528 380.313 349.328 380.825 349.776C381.337 350.224 382.121 350.448 383.177 350.448H386.825V354H382.793ZM372.281 332.112V328.56H386.825V332.112H372.281ZM398.673 354.576C396.049 354.576 393.953 353.968 392.385 352.752C390.849 351.536 390.081 349.84 390.081 347.664C390.081 345.488 390.721 343.776 392.001 342.528C393.281 341.28 395.313 340.4 398.097 339.888L407.121 338.208C407.121 336.064 406.609 334.464 405.585 333.408C404.593 332.352 403.089 331.824 401.073 331.824C399.313 331.824 397.921 332.224 396.897 333.024C395.873 333.792 395.169 334.912 394.785 336.384L390.513 336.048C390.993 333.648 392.145 331.712 393.969 330.24C395.825 328.736 398.193 327.984 401.073 327.984C404.337 327.984 406.833 328.912 408.561 330.768C410.289 332.592 411.153 335.12 411.153 338.352V348.864C411.153 349.44 411.249 349.856 411.441 350.112C411.665 350.336 412.017 350.448 412.497 350.448H413.505V354C413.377 354.032 413.169 354.048 412.881 354.048C412.593 354.08 412.289 354.096 411.969 354.096C410.817 354.096 409.873 353.92 409.137 353.568C408.433 353.184 407.921 352.608 407.601 351.84C407.281 351.04 407.121 350 407.121 348.72L407.601 348.816C407.377 349.904 406.833 350.896 405.969 351.792C405.105 352.656 404.033 353.344 402.753 353.856C401.473 354.336 400.113 354.576 398.673 354.576ZM399.057 351.024C400.753 351.024 402.193 350.704 403.377 350.064C404.593 349.392 405.521 348.496 406.161 347.376C406.801 346.224 407.121 344.944 407.121 343.536V341.712L398.865 343.248C397.137 343.568 395.937 344.064 395.265 344.736C394.625 345.376 394.305 346.224 394.305 347.28C394.305 348.464 394.721 349.392 395.553 350.064C396.417 350.704 397.585 351.024 399.057 351.024ZM426.105 354C423.801 354 422.089 353.472 420.969 352.416C419.881 351.36 419.337 349.712 419.337 347.472V322.608H423.369V347.376C423.369 348.528 423.625 349.328 424.137 349.776C424.649 350.224 425.433 350.448 426.489 350.448H430.137V354H426.105ZM415.593 332.112V328.56H430.137V332.112H415.593ZM435.309 354V328.56H439.341V354H435.309ZM435.213 324.576V319.872H439.437V324.576H435.213ZM456.495 354.576C454.159 354.576 452.111 354.032 450.351 352.944C448.591 351.856 447.231 350.32 446.271 348.336C445.311 346.32 444.831 343.968 444.831 341.28C444.831 338.56 445.311 336.208 446.271 334.224C447.231 332.24 448.591 330.704 450.351 329.616C452.111 328.528 454.159 327.984 456.495 327.984C458.831 327.984 460.863 328.528 462.591 329.616C464.351 330.704 465.711 332.24 466.671 334.224C467.631 336.208 468.111 338.56 468.111 341.28C468.111 343.968 467.631 346.32 466.671 348.336C465.711 350.32 464.351 351.856 462.591 352.944C460.863 354.032 458.831 354.576 456.495 354.576ZM456.495 350.736C458.831 350.736 460.639 349.904 461.919 348.24C463.231 346.544 463.887 344.224 463.887 341.28C463.887 338.336 463.231 336.032 461.919 334.368C460.639 332.672 458.831 331.824 456.495 331.824C454.159 331.824 452.335 332.672 451.023 334.368C449.711 336.032 449.055 338.336 449.055 341.28C449.055 344.224 449.711 346.544 451.023 348.24C452.335 349.904 454.159 350.736 456.495 350.736ZM473.606 354V328.56H477.302L477.446 335.04L476.966 334.608C477.286 333.104 477.846 331.872 478.646 330.912C479.446 329.92 480.406 329.184 481.526 328.704C482.678 328.224 483.91 327.984 485.222 327.984C487.174 327.984 488.774 328.416 490.022 329.28C491.302 330.144 492.246 331.312 492.854 332.784C493.494 334.224 493.814 335.84 493.814 337.632V354H489.782V338.784C489.782 337.216 489.59 335.904 489.206 334.848C488.854 333.76 488.278 332.944 487.478 332.4C486.678 331.824 485.638 331.536 484.358 331.536C482.406 331.536 480.79 332.16 479.51 333.408C478.262 334.624 477.638 336.416 477.638 338.784V354H473.606ZM523.144 361.776C521.32 361.776 519.672 361.472 518.2 360.864C516.728 360.256 515.496 359.392 514.504 358.272C513.512 357.152 512.84 355.856 512.488 354.384L516.712 354.096C517.096 355.28 517.768 356.208 518.728 356.88C519.72 357.584 521.192 357.936 523.144 357.936C525.448 357.936 527.208 357.472 528.424 356.544C529.672 355.616 530.296 354.224 530.296 352.368V348.24C529.688 349.584 528.712 350.656 527.368 351.456C526.024 352.256 524.52 352.656 522.856 352.656C520.712 352.656 518.792 352.128 517.096 351.072C515.432 350.016 514.12 348.56 513.16 346.704C512.232 344.848 511.768 342.72 511.768 340.32C511.768 337.888 512.232 335.76 513.16 333.936C514.088 332.08 515.368 330.624 517 329.568C518.664 328.512 520.552 327.984 522.664 327.984C524.456 327.984 526.056 328.4 527.464 329.232C528.904 330.064 529.912 331.184 530.488 332.592V328.56H534.328V352.272C534.328 354.256 533.88 355.952 532.984 357.36C532.088 358.8 530.808 359.888 529.144 360.624C527.48 361.392 525.48 361.776 523.144 361.776ZM523.048 348.816C525.224 348.816 526.968 348.064 528.28 346.56C529.592 345.024 530.264 342.944 530.296 340.32C530.328 338.56 530.04 337.056 529.432 335.808C528.856 334.528 528.008 333.552 526.888 332.88C525.8 332.176 524.52 331.824 523.048 331.824C520.808 331.824 519.064 332.592 517.816 334.128C516.6 335.632 515.992 337.696 515.992 340.32C515.992 342.944 516.616 345.024 517.864 346.56C519.144 348.064 520.872 348.816 523.048 348.816ZM551.464 354.576C549.064 354.576 546.984 354.032 545.224 352.944C543.496 351.856 542.152 350.32 541.192 348.336C540.264 346.32 539.8 343.968 539.8 341.28C539.8 338.592 540.264 336.256 541.192 334.272C542.152 332.288 543.48 330.752 545.176 329.664C546.904 328.544 548.936 327.984 551.272 327.984C553.48 327.984 555.432 328.512 557.128 329.568C558.824 330.592 560.136 332.096 561.064 334.08C562.024 336.064 562.504 338.48 562.504 341.328V342.528H544.023C544.184 345.248 544.904 347.296 546.184 348.672C547.496 350.048 549.256 350.736 551.464 350.736C553.128 350.736 554.488 350.352 555.544 349.584C556.632 348.784 557.384 347.744 557.8 346.464L562.12 346.8C561.448 349.072 560.168 350.944 558.28 352.416C556.424 353.856 554.152 354.576 551.464 354.576ZM544.023 338.976H558.088C557.896 336.512 557.176 334.704 555.928 333.552C554.712 332.4 553.16 331.824 551.272 331.824C549.32 331.824 547.704 332.432 546.424 333.648C545.176 334.832 544.376 336.608 544.023 338.976ZM567.965 354V328.56H571.661L571.805 335.04L571.325 334.608C571.645 333.104 572.205 331.872 573.005 330.912C573.805 329.92 574.765 329.184 575.885 328.704C577.037 328.224 578.269 327.984 579.581 327.984C581.533 327.984 583.133 328.416 584.381 329.28C585.661 330.144 586.605 331.312 587.213 332.784C587.853 334.224 588.173 335.84 588.173 337.632V354H584.141V338.784C584.141 337.216 583.949 335.904 583.565 334.848C583.213 333.76 582.637 332.944 581.837 332.4C581.037 331.824 579.997 331.536 578.717 331.536C576.765 331.536 575.149 332.16 573.869 333.408C572.621 334.624 571.997 336.416 571.997 338.784V354H567.965ZM605.229 354.576C602.829 354.576 600.749 354.032 598.989 352.944C597.261 351.856 595.917 350.32 594.957 348.336C594.029 346.32 593.565 343.968 593.565 341.28C593.565 338.592 594.029 336.256 594.957 334.272C595.917 332.288 597.245 330.752 598.941 329.664C600.669 328.544 602.701 327.984 605.037 327.984C607.245 327.984 609.197 328.512 610.893 329.568C612.589 330.592 613.901 332.096 614.829 334.08C615.789 336.064 616.269 338.48 616.269 341.328V342.528H597.789C597.949 345.248 598.669 347.296 599.949 348.672C601.261 350.048 603.021 350.736 605.229 350.736C606.893 350.736 608.253 350.352 609.309 349.584C610.397 348.784 611.149 347.744 611.565 346.464L615.885 346.8C615.213 349.072 613.933 350.944 612.045 352.416C610.189 353.856 607.917 354.576 605.229 354.576ZM597.789 338.976H611.853C611.661 336.512 610.941 334.704 609.693 333.552C608.477 332.4 606.925 331.824 605.037 331.824C603.085 331.824 601.469 332.432 600.189 333.648C598.941 334.832 598.141 336.608 597.789 338.976ZM621.731 354V328.56H625.283L625.475 334.992L625.091 334.848C625.411 332.672 626.099 331.088 627.155 330.096C628.243 329.072 629.683 328.56 631.475 328.56H633.971V332.4H631.523C630.243 332.4 629.171 332.64 628.307 333.12C627.475 333.568 626.835 334.256 626.387 335.184C625.971 336.08 625.763 337.232 625.763 338.64V354H621.731ZM644.86 354.576C642.236 354.576 640.14 353.968 638.572 352.752C637.036 351.536 636.268 349.84 636.268 347.664C636.268 345.488 636.908 343.776 638.188 342.528C639.468 341.28 641.5 340.4 644.284 339.888L653.308 338.208C653.308 336.064 652.796 334.464 651.772 333.408C650.78 332.352 649.276 331.824 647.26 331.824C645.5 331.824 644.108 332.224 643.084 333.024C642.06 333.792 641.356 334.912 640.972 336.384L636.7 336.048C637.18 333.648 638.332 331.712 640.156 330.24C642.012 328.736 644.38 327.984 647.26 327.984C650.524 327.984 653.02 328.912 654.748 330.768C656.476 332.592 657.34 335.12 657.34 338.352V348.864C657.34 349.44 657.436 349.856 657.628 350.112C657.852 350.336 658.204 350.448 658.684 350.448H659.692V354C659.564 354.032 659.356 354.048 659.068 354.048C658.78 354.08 658.476 354.096 658.156 354.096C657.004 354.096 656.06 353.92 655.324 353.568C654.62 353.184 654.108 352.608 653.788 351.84C653.468 351.04 653.308 350 653.308 348.72L653.788 348.816C653.564 349.904 653.02 350.896 652.156 351.792C651.292 352.656 650.22 353.344 648.94 353.856C647.66 354.336 646.3 354.576 644.86 354.576ZM645.244 351.024C646.94 351.024 648.38 350.704 649.564 350.064C650.78 349.392 651.708 348.496 652.348 347.376C652.988 346.224 653.308 344.944 653.308 343.536V341.712L645.052 343.248C643.324 343.568 642.124 344.064 641.452 344.736C640.812 345.376 640.492 346.224 640.492 347.28C640.492 348.464 640.908 349.392 641.74 350.064C642.604 350.704 643.772 351.024 645.244 351.024ZM672.293 354C669.989 354 668.277 353.472 667.157 352.416C666.069 351.36 665.525 349.712 665.525 347.472V322.608H669.557V347.376C669.557 348.528 669.813 349.328 670.325 349.776C670.837 350.224 671.621 350.448 672.677 350.448H676.325V354H672.293ZM661.781 332.112V328.56H676.325V332.112H661.781ZM690.964 354.576C688.628 354.576 686.58 354.032 684.82 352.944C683.06 351.856 681.7 350.32 680.74 348.336C679.78 346.32 679.3 343.968 679.3 341.28C679.3 338.56 679.78 336.208 680.74 334.224C681.7 332.24 683.06 330.704 684.82 329.616C686.58 328.528 688.628 327.984 690.964 327.984C693.3 327.984 695.332 328.528 697.06 329.616C698.82 330.704 700.18 332.24 701.14 334.224C702.1 336.208 702.58 338.56 702.58 341.28C702.58 343.968 702.1 346.32 701.14 348.336C700.18 350.32 698.82 351.856 697.06 352.944C695.332 354.032 693.3 354.576 690.964 354.576ZM690.964 350.736C693.3 350.736 695.108 349.904 696.388 348.24C697.7 346.544 698.356 344.224 698.356 341.28C698.356 338.336 697.7 336.032 696.388 334.368C695.108 332.672 693.3 331.824 690.964 331.824C688.628 331.824 686.804 332.672 685.492 334.368C684.18 336.032 683.523 338.336 683.523 341.28C683.523 344.224 684.18 346.544 685.492 348.24C686.804 349.904 688.628 350.736 690.964 350.736ZM708.074 354V328.56H711.626L711.818 334.992L711.434 334.848C711.754 332.672 712.442 331.088 713.498 330.096C714.586 329.072 716.026 328.56 717.818 328.56H720.314V332.4H717.866C716.586 332.4 715.514 332.64 714.65 333.12C713.818 333.568 713.178 334.256 712.73 335.184C712.314 336.08 712.106 337.232 712.106 338.64V354H708.074ZM747.574 354C745.27 354 743.558 353.472 742.438 352.416C741.35 351.36 740.806 349.712 740.806 347.472V322.608H744.838V347.376C744.838 348.528 745.094 349.328 745.606 349.776C746.118 350.224 746.902 350.448 747.958 350.448H751.606V354H747.574ZM737.062 332.112V328.56H751.606V332.112H737.062ZM765.13 354.576C762.602 354.576 760.57 353.728 759.034 352.032C757.53 350.304 756.778 347.936 756.778 344.928V328.56H760.81V343.824C760.81 346.288 761.242 348.112 762.106 349.296C763.002 350.448 764.362 351.024 766.186 351.024C768.202 351.024 769.786 350.384 770.938 349.104C772.09 347.792 772.666 346 772.666 343.728V328.56H776.698V354H772.858V347.712L773.482 348.048C772.97 350.128 771.994 351.744 770.554 352.896C769.114 354.016 767.306 354.576 765.13 354.576ZM784.387 354V328.56H787.939L788.131 334.992L787.747 334.848C788.067 332.672 788.755 331.088 789.811 330.096C790.899 329.072 792.339 328.56 794.131 328.56H796.627V332.4H794.179C792.899 332.4 791.827 332.64 790.963 333.12C790.131 333.568 789.491 334.256 789.043 335.184C788.627 336.08 788.419 337.232 788.419 338.64V354H784.387ZM800.653 354V328.56H804.349L804.493 335.04L804.013 334.608C804.333 333.104 804.893 331.872 805.693 330.912C806.493 329.92 807.453 329.184 808.573 328.704C809.725 328.224 810.957 327.984 812.269 327.984C814.221 327.984 815.821 328.416 817.069 329.28C818.349 330.144 819.293 331.312 819.901 332.784C820.541 334.224 820.861 335.84 820.861 337.632V354H816.829V338.784C816.829 337.216 816.637 335.904 816.253 334.848C815.901 333.76 815.325 332.944 814.525 332.4C813.725 331.824 812.685 331.536 811.405 331.536C809.453 331.536 807.837 332.16 806.557 333.408C805.309 334.624 804.685 336.416 804.685 338.784V354H800.653ZM837.245 354.576C834.973 354.576 833.037 354.208 831.437 353.472C829.869 352.736 828.637 351.728 827.741 350.448C826.877 349.136 826.381 347.648 826.253 345.984L830.477 345.696C830.733 347.232 831.389 348.464 832.445 349.392C833.501 350.288 835.101 350.736 837.245 350.736C838.973 350.736 840.349 350.464 841.373 349.92C842.429 349.344 842.957 348.432 842.957 347.184C842.957 346.512 842.797 345.952 842.477 345.504C842.157 345.056 841.533 344.672 840.605 344.352C839.677 344 838.301 343.664 836.477 343.344C834.045 342.896 832.125 342.352 830.717 341.712C829.341 341.04 828.349 340.224 827.741 339.264C827.165 338.272 826.877 337.104 826.877 335.76C826.877 333.488 827.709 331.632 829.373 330.192C831.037 328.72 833.405 327.984 836.477 327.984C838.557 327.984 840.301 328.368 841.709 329.136C843.149 329.872 844.269 330.864 845.069 332.112C845.901 333.328 846.445 334.672 846.701 336.144L842.477 336.432C842.285 335.536 841.933 334.752 841.421 334.08C840.909 333.376 840.237 332.832 839.405 332.448C838.573 332.032 837.581 331.824 836.429 331.824C834.605 331.824 833.261 332.176 832.397 332.88C831.533 333.584 831.101 334.48 831.101 335.568C831.101 336.4 831.293 337.088 831.677 337.632C832.093 338.144 832.749 338.576 833.645 338.928C834.541 339.248 835.741 339.536 837.245 339.792C839.837 340.24 841.853 340.784 843.293 341.424C844.733 342.064 845.741 342.848 846.317 343.776C846.893 344.704 847.181 345.84 847.181 347.184C847.181 348.752 846.733 350.096 845.837 351.216C844.973 352.304 843.789 353.136 842.285 353.712C840.813 354.288 839.133 354.576 837.245 354.576ZM167.557 416.576C165.221 416.576 163.173 416.032 161.413 414.944C159.653 413.856 158.293 412.32 157.333 410.336C156.373 408.32 155.893 405.968 155.893 403.28C155.893 400.56 156.373 398.208 157.333 396.224C158.293 394.24 159.653 392.704 161.413 391.616C163.173 390.528 165.221 389.984 167.557 389.984C169.893 389.984 171.925 390.528 173.653 391.616C175.413 392.704 176.773 394.24 177.733 396.224C178.693 398.208 179.173 400.56 179.173 403.28C179.173 405.968 178.693 408.32 177.733 410.336C176.773 412.32 175.413 413.856 173.653 414.944C171.925 416.032 169.893 416.576 167.557 416.576ZM167.557 412.736C169.893 412.736 171.701 411.904 172.981 410.24C174.293 408.544 174.949 406.224 174.949 403.28C174.949 400.336 174.293 398.032 172.981 396.368C171.701 394.672 169.893 393.824 167.557 393.824C165.221 393.824 163.397 394.672 162.085 396.368C160.773 398.032 160.117 400.336 160.117 403.28C160.117 406.224 160.773 408.544 162.085 410.24C163.397 411.904 165.221 412.736 167.557 412.736ZM184.668 416V390.56H188.364L188.508 397.04L188.028 396.608C188.348 395.104 188.908 393.872 189.708 392.912C190.508 391.92 191.468 391.184 192.588 390.704C193.74 390.224 194.972 389.984 196.284 389.984C198.236 389.984 199.836 390.416 201.084 391.28C202.364 392.144 203.308 393.312 203.916 394.784C204.556 396.224 204.876 397.84 204.876 399.632V416H200.844V400.784C200.844 399.216 200.652 397.904 200.268 396.848C199.916 395.76 199.34 394.944 198.54 394.4C197.74 393.824 196.7 393.536 195.42 393.536C193.468 393.536 191.852 394.16 190.572 395.408C189.324 396.624 188.7 398.416 188.7 400.784V416H184.668ZM221.932 416.576C219.532 416.576 217.452 416.032 215.692 414.944C213.964 413.856 212.62 412.32 211.66 410.336C210.732 408.32 210.268 405.968 210.268 403.28C210.268 400.592 210.732 398.256 211.66 396.272C212.62 394.288 213.948 392.752 215.644 391.664C217.372 390.544 219.404 389.984 221.74 389.984C223.948 389.984 225.9 390.512 227.596 391.568C229.292 392.592 230.604 394.096 231.532 396.08C232.492 398.064 232.972 400.48 232.972 403.328V404.528H214.492C214.652 407.248 215.372 409.296 216.652 410.672C217.964 412.048 219.724 412.736 221.932 412.736C223.596 412.736 224.956 412.352 226.012 411.584C227.1 410.784 227.852 409.744 228.268 408.464L232.588 408.8C231.916 411.072 230.636 412.944 228.748 414.416C226.892 415.856 224.62 416.576 221.932 416.576ZM214.492 400.976H228.556C228.364 398.512 227.644 396.704 226.396 395.552C225.18 394.4 223.628 393.824 221.74 393.824C219.788 393.824 218.172 394.432 216.892 395.648C215.644 396.832 214.844 398.608 214.492 400.976ZM250.903 423.2V390.56H254.647L254.743 396.032L254.167 395.744C254.807 393.856 255.863 392.432 257.335 391.472C258.839 390.48 260.567 389.984 262.519 389.984C265.047 389.984 267.111 390.608 268.711 391.856C270.343 393.104 271.543 394.736 272.311 396.752C273.111 398.768 273.51 400.944 273.51 403.28C273.51 405.616 273.111 407.792 272.311 409.808C271.543 411.824 270.343 413.456 268.711 414.704C267.111 415.952 265.047 416.576 262.519 416.576C261.207 416.576 259.975 416.352 258.823 415.904C257.703 415.456 256.743 414.832 255.943 414.032C255.175 413.232 254.647 412.288 254.359 411.2L254.935 410.528V423.2H250.903ZM262.135 412.736C264.343 412.736 266.087 411.904 267.367 410.24C268.647 408.576 269.287 406.256 269.287 403.28C269.287 400.304 268.647 397.984 267.367 396.32C266.087 394.656 264.343 393.824 262.135 393.824C260.663 393.824 259.383 394.176 258.295 394.88C257.239 395.584 256.407 396.64 255.799 398.048C255.223 399.456 254.935 401.2 254.935 403.28C254.935 405.36 255.223 407.104 255.799 408.512C256.375 409.92 257.207 410.976 258.295 411.68C259.383 412.384 260.663 412.736 262.135 412.736ZM278.981 416V390.56H282.533L282.725 396.992L282.341 396.848C282.661 394.672 283.349 393.088 284.405 392.096C285.493 391.072 286.933 390.56 288.725 390.56H291.221V394.4H288.773C287.493 394.4 286.421 394.64 285.557 395.12C284.725 395.568 284.085 396.256 283.637 397.184C283.221 398.08 283.013 399.232 283.013 400.64V416H278.981ZM305.182 416.576C302.846 416.576 300.798 416.032 299.038 414.944C297.278 413.856 295.918 412.32 294.958 410.336C293.998 408.32 293.518 405.968 293.518 403.28C293.518 400.56 293.998 398.208 294.958 396.224C295.918 394.24 297.278 392.704 299.038 391.616C300.798 390.528 302.846 389.984 305.182 389.984C307.518 389.984 309.55 390.528 311.278 391.616C313.038 392.704 314.398 394.24 315.358 396.224C316.318 398.208 316.798 400.56 316.798 403.28C316.798 405.968 316.318 408.32 315.358 410.336C314.398 412.32 313.038 413.856 311.278 414.944C309.55 416.032 307.518 416.576 305.182 416.576ZM305.182 412.736C307.518 412.736 309.326 411.904 310.606 410.24C311.918 408.544 312.574 406.224 312.574 403.28C312.574 400.336 311.918 398.032 310.606 396.368C309.326 394.672 307.518 393.824 305.182 393.824C302.846 393.824 301.022 394.672 299.71 396.368C298.398 398.032 297.742 400.336 297.742 403.28C297.742 406.224 298.398 408.544 299.71 410.24C301.022 411.904 302.846 412.736 305.182 412.736ZM322.293 416V390.56H325.989L326.133 396.992L325.557 396.8C325.845 395.392 326.341 394.192 327.045 393.2C327.781 392.176 328.677 391.392 329.733 390.848C330.789 390.272 331.957 389.984 333.237 389.984C335.445 389.984 337.237 390.592 338.613 391.808C340.021 393.024 340.901 394.72 341.253 396.896L340.485 396.848C340.741 395.376 341.205 394.144 341.877 393.152C342.581 392.128 343.477 391.344 344.565 390.8C345.653 390.256 346.901 389.984 348.309 389.984C350.133 389.984 351.669 390.368 352.917 391.136C354.165 391.872 355.109 392.96 355.749 394.4C356.389 395.84 356.709 397.584 356.709 399.632V416H352.677V400.496C352.677 398.192 352.229 396.464 351.333 395.312C350.437 394.128 349.109 393.536 347.349 393.536C346.165 393.536 345.125 393.824 344.229 394.4C343.365 394.976 342.693 395.808 342.213 396.896C341.733 397.952 341.493 399.248 341.493 400.784V416H337.461V400.784C337.461 398.512 337.061 396.736 336.261 395.456C335.461 394.176 334.117 393.536 332.229 393.536C331.045 393.536 330.005 393.824 329.109 394.4C328.245 394.976 327.557 395.808 327.045 396.896C326.565 397.984 326.325 399.28 326.325 400.784V416H322.293ZM363.449 423.2V390.56H367.193L367.289 396.032L366.713 395.744C367.353 393.856 368.409 392.432 369.881 391.472C371.385 390.48 373.113 389.984 375.065 389.984C377.593 389.984 379.657 390.608 381.257 391.856C382.889 393.104 384.089 394.736 384.857 396.752C385.657 398.768 386.057 400.944 386.057 403.28C386.057 405.616 385.657 407.792 384.857 409.808C384.089 411.824 382.889 413.456 381.257 414.704C379.657 415.952 377.593 416.576 375.065 416.576C373.753 416.576 372.521 416.352 371.369 415.904C370.249 415.456 369.289 414.832 368.489 414.032C367.721 413.232 367.193 412.288 366.905 411.2L367.481 410.528V423.2H363.449ZM374.681 412.736C376.889 412.736 378.633 411.904 379.913 410.24C381.193 408.576 381.833 406.256 381.833 403.28C381.833 400.304 381.193 397.984 379.913 396.32C378.633 394.656 376.889 393.824 374.681 393.824C373.209 393.824 371.929 394.176 370.841 394.88C369.785 395.584 368.953 396.64 368.345 398.048C367.769 399.456 367.481 401.2 367.481 403.28C367.481 405.36 367.769 407.104 368.345 408.512C368.921 409.92 369.753 410.976 370.841 411.68C371.929 412.384 373.209 412.736 374.681 412.736ZM399.855 416C397.551 416 395.839 415.472 394.719 414.416C393.631 413.36 393.087 411.712 393.087 409.472V384.608H397.119V409.376C397.119 410.528 397.375 411.328 397.887 411.776C398.399 412.224 399.183 412.448 400.239 412.448H403.887V416H399.855ZM389.343 394.112V390.56H403.887V394.112H389.343ZM421.34 416V390.56H425.372V416H421.34ZM421.244 386.576V381.872H425.468V386.576H421.244ZM433.528 416V390.56H437.224L437.368 397.04L436.888 396.608C437.208 395.104 437.768 393.872 438.568 392.912C439.368 391.92 440.328 391.184 441.448 390.704C442.6 390.224 443.832 389.984 445.144 389.984C447.096 389.984 448.696 390.416 449.944 391.28C451.224 392.144 452.168 393.312 452.776 394.784C453.416 396.224 453.736 397.84 453.736 399.632V416H449.704V400.784C449.704 399.216 449.512 397.904 449.128 396.848C448.776 395.76 448.2 394.944 447.4 394.4C446.6 393.824 445.56 393.536 444.28 393.536C442.328 393.536 440.712 394.16 439.432 395.408C438.184 396.624 437.56 398.416 437.56 400.784V416H433.528ZM468.808 416C466.504 416 464.792 415.472 463.672 414.416C462.584 413.36 462.04 411.712 462.04 409.472V384.608H466.072V409.376C466.072 410.528 466.328 411.328 466.84 411.776C467.352 412.224 468.136 412.448 469.192 412.448H472.84V416H468.808ZM458.296 394.112V390.56H472.84V394.112H458.296ZM487.479 416.576C485.143 416.576 483.095 416.032 481.335 414.944C479.575 413.856 478.215 412.32 477.255 410.336C476.295 408.32 475.815 405.968 475.815 403.28C475.815 400.56 476.295 398.208 477.255 396.224C478.215 394.24 479.575 392.704 481.335 391.616C483.095 390.528 485.143 389.984 487.479 389.984C489.815 389.984 491.847 390.528 493.575 391.616C495.335 392.704 496.695 394.24 497.655 396.224C498.615 398.208 499.095 400.56 499.095 403.28C499.095 405.968 498.615 408.32 497.655 410.336C496.695 412.32 495.335 413.856 493.575 414.944C491.847 416.032 489.815 416.576 487.479 416.576ZM487.479 412.736C489.815 412.736 491.623 411.904 492.903 410.24C494.215 408.544 494.871 406.224 494.871 403.28C494.871 400.336 494.215 398.032 492.903 396.368C491.623 394.672 489.815 393.824 487.479 393.824C485.143 393.824 483.319 394.672 482.007 396.368C480.695 398.032 480.039 400.336 480.039 403.28C480.039 406.224 480.695 408.544 482.007 410.24C483.319 411.904 485.143 412.736 487.479 412.736ZM523.923 416.576C521.299 416.576 519.203 415.968 517.635 414.752C516.099 413.536 515.331 411.84 515.331 409.664C515.331 407.488 515.971 405.776 517.251 404.528C518.531 403.28 520.563 402.4 523.347 401.888L532.371 400.208C532.371 398.064 531.859 396.464 530.835 395.408C529.843 394.352 528.339 393.824 526.323 393.824C524.563 393.824 523.171 394.224 522.147 395.024C521.123 395.792 520.419 396.912 520.035 398.384L515.763 398.048C516.243 395.648 517.395 393.712 519.219 392.24C521.075 390.736 523.443 389.984 526.323 389.984C529.587 389.984 532.083 390.912 533.811 392.768C535.539 394.592 536.403 397.12 536.403 400.352V410.864C536.403 411.44 536.499 411.856 536.691 412.112C536.915 412.336 537.267 412.448 537.747 412.448H538.755V416C538.627 416.032 538.419 416.048 538.131 416.048C537.843 416.08 537.539 416.096 537.219 416.096C536.067 416.096 535.123 415.92 534.387 415.568C533.683 415.184 533.171 414.608 532.851 413.84C532.531 413.04 532.371 412 532.371 410.72L532.851 410.816C532.627 411.904 532.083 412.896 531.219 413.792C530.355 414.656 529.283 415.344 528.003 415.856C526.723 416.336 525.363 416.576 523.923 416.576ZM524.307 413.024C526.003 413.024 527.443 412.704 528.627 412.064C529.843 411.392 530.771 410.496 531.411 409.376C532.051 408.224 532.371 406.944 532.371 405.536V403.712L524.115 405.248C522.387 405.568 521.187 406.064 520.515 406.736C519.875 407.376 519.555 408.224 519.555 409.28C519.555 410.464 519.971 411.392 520.803 412.064C521.667 412.704 522.835 413.024 524.307 413.024ZM557.992 416V388.256C557.992 386.368 558.536 384.848 559.624 383.696C560.712 382.512 562.408 381.92 564.712 381.92H568.744V385.472H565C564.008 385.472 563.256 385.744 562.744 386.288C562.264 386.832 562.024 387.584 562.024 388.544V416H557.992ZM554.536 394.112V390.56H568.408V394.112H554.536ZM582.786 416.576C580.258 416.576 578.226 415.728 576.69 414.032C575.186 412.304 574.434 409.936 574.434 406.928V390.56H578.466V405.824C578.466 408.288 578.898 410.112 579.762 411.296C580.658 412.448 582.018 413.024 583.842 413.024C585.858 413.024 587.442 412.384 588.594 411.104C589.746 409.792 590.322 408 590.322 405.728V390.56H594.354V416H590.514V409.712L591.138 410.048C590.626 412.128 589.65 413.744 588.21 414.896C586.77 416.016 584.962 416.576 582.786 416.576ZM607.035 416C605.563 416 604.363 415.616 603.435 414.848C602.507 414.08 602.043 412.864 602.043 411.2V381.92H606.075V410.864C606.075 411.376 606.203 411.776 606.459 412.064C606.747 412.32 607.147 412.448 607.659 412.448H609.867V416H607.035ZM619.363 416C617.891 416 616.691 415.616 615.763 414.848C614.835 414.08 614.371 412.864 614.371 411.2V381.92H618.403V410.864C618.403 411.376 618.531 411.776 618.787 412.064C619.075 412.32 619.475 412.448 619.987 412.448H622.195V416H619.363ZM627.1 423.2V419.648H630.028C630.924 419.648 631.58 419.504 631.996 419.216C632.444 418.96 632.78 418.528 633.004 417.92L633.916 415.52H632.524L623.212 390.56H627.628L635.212 411.776L642.46 390.56H646.876L636.556 419.216C636.076 420.592 635.356 421.6 634.396 422.24C633.436 422.88 632.108 423.2 630.412 423.2H627.1ZM672.802 416.576C670.594 416.576 668.674 416.032 667.042 414.944C665.442 413.856 664.21 412.32 663.346 410.336C662.482 408.352 662.05 406 662.05 403.28C662.05 400.56 662.482 398.208 663.346 396.224C664.21 394.24 665.442 392.704 667.042 391.616C668.674 390.528 670.594 389.984 672.802 389.984C674.498 389.984 676.05 390.352 677.458 391.088C678.866 391.792 679.922 392.8 680.626 394.112V381.92H684.658V416H681.01L680.866 412.16C680.162 413.536 679.09 414.624 677.65 415.424C676.21 416.192 674.594 416.576 672.802 416.576ZM673.618 412.736C675.122 412.736 676.386 412.352 677.41 411.584C678.466 410.816 679.266 409.728 679.81 408.32C680.354 406.88 680.626 405.2 680.626 403.28C680.626 401.296 680.354 399.6 679.81 398.192C679.266 396.784 678.466 395.712 677.41 394.976C676.386 394.208 675.122 393.824 673.618 393.824C671.378 393.824 669.586 394.672 668.242 396.368C666.93 398.032 666.273 400.336 666.273 403.28C666.273 406.192 666.93 408.496 668.242 410.192C669.586 411.888 671.378 412.736 673.618 412.736ZM701.792 416.576C699.392 416.576 697.312 416.032 695.552 414.944C693.824 413.856 692.48 412.32 691.52 410.336C690.592 408.32 690.128 405.968 690.128 403.28C690.128 400.592 690.592 398.256 691.52 396.272C692.48 394.288 693.808 392.752 695.504 391.664C697.232 390.544 699.264 389.984 701.6 389.984C703.808 389.984 705.76 390.512 707.456 391.568C709.152 392.592 710.464 394.096 711.392 396.08C712.352 398.064 712.832 400.48 712.832 403.328V404.528H694.352C694.512 407.248 695.232 409.296 696.512 410.672C697.824 412.048 699.584 412.736 701.792 412.736C703.456 412.736 704.816 412.352 705.872 411.584C706.96 410.784 707.712 409.744 708.128 408.464L712.448 408.8C711.776 411.072 710.496 412.944 708.608 414.416C706.752 415.856 704.48 416.576 701.792 416.576ZM694.352 400.976H708.416C708.224 398.512 707.504 396.704 706.256 395.552C705.04 394.4 703.488 393.824 701.6 393.824C699.648 393.824 698.032 394.432 696.752 395.648C695.504 396.832 694.704 398.608 694.352 400.976ZM727.557 416.576C725.285 416.576 723.349 416.208 721.749 415.472C720.181 414.736 718.949 413.728 718.053 412.448C717.189 411.136 716.693 409.648 716.565 407.984L720.789 407.696C721.045 409.232 721.701 410.464 722.757 411.392C723.813 412.288 725.413 412.736 727.557 412.736C729.285 412.736 730.661 412.464 731.685 411.92C732.741 411.344 733.269 410.432 733.269 409.184C733.269 408.512 733.109 407.952 732.789 407.504C732.469 407.056 731.845 406.672 730.917 406.352C729.989 406 728.613 405.664 726.789 405.344C724.357 404.896 722.437 404.352 721.029 403.712C719.653 403.04 718.661 402.224 718.053 401.264C717.477 400.272 717.189 399.104 717.189 397.76C717.189 395.488 718.021 393.632 719.685 392.192C721.349 390.72 723.717 389.984 726.789 389.984C728.869 389.984 730.613 390.368 732.021 391.136C733.461 391.872 734.581 392.864 735.381 394.112C736.213 395.328 736.757 396.672 737.013 398.144L732.789 398.432C732.597 397.536 732.245 396.752 731.733 396.08C731.221 395.376 730.549 394.832 729.717 394.448C728.885 394.032 727.893 393.824 726.741 393.824C724.917 393.824 723.573 394.176 722.709 394.88C721.845 395.584 721.413 396.48 721.413 397.568C721.413 398.4 721.605 399.088 721.989 399.632C722.405 400.144 723.061 400.576 723.957 400.928C724.853 401.248 726.053 401.536 727.557 401.792C730.149 402.24 732.165 402.784 733.605 403.424C735.045 404.064 736.053 404.848 736.629 405.776C737.205 406.704 737.493 407.84 737.493 409.184C737.493 410.752 737.045 412.096 736.149 413.216C735.285 414.304 734.101 415.136 732.597 415.712C731.125 416.288 729.445 416.576 727.557 416.576ZM742.996 416V390.56H747.028V416H742.996ZM742.9 386.576V381.872H747.124V386.576H742.9ZM763.894 423.776C762.07 423.776 760.422 423.472 758.95 422.864C757.478 422.256 756.246 421.392 755.254 420.272C754.262 419.152 753.59 417.856 753.238 416.384L757.462 416.096C757.846 417.28 758.518 418.208 759.478 418.88C760.47 419.584 761.942 419.936 763.894 419.936C766.198 419.936 767.958 419.472 769.174 418.544C770.422 417.616 771.046 416.224 771.046 414.368V410.24C770.438 411.584 769.462 412.656 768.118 413.456C766.774 414.256 765.27 414.656 763.606 414.656C761.462 414.656 759.542 414.128 757.846 413.072C756.182 412.016 754.87 410.56 753.91 408.704C752.982 406.848 752.518 404.72 752.518 402.32C752.518 399.888 752.982 397.76 753.91 395.936C754.838 394.08 756.118 392.624 757.75 391.568C759.414 390.512 761.302 389.984 763.414 389.984C765.206 389.984 766.806 390.4 768.214 391.232C769.654 392.064 770.662 393.184 771.238 394.592V390.56H775.078V414.272C775.078 416.256 774.63 417.952 773.734 419.36C772.838 420.8 771.558 421.888 769.894 422.624C768.23 423.392 766.23 423.776 763.894 423.776ZM763.798 410.816C765.974 410.816 767.718 410.064 769.03 408.56C770.342 407.024 771.014 404.944 771.046 402.32C771.078 400.56 770.79 399.056 770.182 397.808C769.606 396.528 768.758 395.552 767.638 394.88C766.55 394.176 765.27 393.824 763.798 393.824C761.558 393.824 759.814 394.592 758.566 396.128C757.35 397.632 756.742 399.696 756.742 402.32C756.742 404.944 757.366 407.024 758.614 408.56C759.894 410.064 761.622 410.816 763.798 410.816ZM782.746 416V390.56H786.442L786.586 397.04L786.106 396.608C786.426 395.104 786.986 393.872 787.786 392.912C788.586 391.92 789.546 391.184 790.666 390.704C791.818 390.224 793.05 389.984 794.362 389.984C796.314 389.984 797.914 390.416 799.162 391.28C800.442 392.144 801.386 393.312 801.994 394.784C802.634 396.224 802.954 397.84 802.954 399.632V416H798.922V400.784C798.922 399.216 798.73 397.904 798.346 396.848C797.994 395.76 797.418 394.944 796.618 394.4C795.818 393.824 794.778 393.536 793.498 393.536C791.546 393.536 789.93 394.16 788.65 395.408C787.402 396.624 786.778 398.416 786.778 400.784V416H782.746ZM820.01 416.576C817.61 416.576 815.53 416.032 813.77 414.944C812.042 413.856 810.698 412.32 809.738 410.336C808.81 408.32 808.346 405.968 808.346 403.28C808.346 400.592 808.81 398.256 809.738 396.272C810.698 394.288 812.026 392.752 813.722 391.664C815.45 390.544 817.482 389.984 819.818 389.984C822.026 389.984 823.978 390.512 825.674 391.568C827.37 392.592 828.682 394.096 829.61 396.08C830.57 398.064 831.05 400.48 831.05 403.328V404.528H812.57C812.73 407.248 813.45 409.296 814.73 410.672C816.042 412.048 817.802 412.736 820.01 412.736C821.674 412.736 823.034 412.352 824.09 411.584C825.178 410.784 825.93 409.744 826.346 408.464L830.666 408.8C829.994 411.072 828.714 412.944 826.826 414.416C824.97 415.856 822.698 416.576 820.01 416.576ZM812.57 400.976H826.634C826.442 398.512 825.722 396.704 824.474 395.552C823.258 394.4 821.706 393.824 819.818 393.824C817.866 393.824 816.25 394.432 814.97 395.648C813.722 396.832 812.922 398.608 812.57 400.976ZM845.536 416.576C843.328 416.576 841.408 416.032 839.776 414.944C838.176 413.856 836.944 412.32 836.08 410.336C835.216 408.352 834.784 406 834.784 403.28C834.784 400.56 835.216 398.208 836.08 396.224C836.944 394.24 838.176 392.704 839.776 391.616C841.408 390.528 843.328 389.984 845.536 389.984C847.232 389.984 848.784 390.352 850.192 391.088C851.6 391.792 852.656 392.8 853.36 394.112V381.92H857.392V416H853.744L853.6 412.16C852.896 413.536 851.824 414.624 850.384 415.424C848.944 416.192 847.328 416.576 845.536 416.576ZM846.352 412.736C847.856 412.736 849.12 412.352 850.144 411.584C851.2 410.816 852 409.728 852.544 408.32C853.088 406.88 853.36 405.2 853.36 403.28C853.36 401.296 853.088 399.6 852.544 398.192C852 396.784 851.2 395.712 850.144 394.976C849.12 394.208 847.856 393.824 846.352 393.824C844.112 393.824 842.32 394.672 840.976 396.368C839.664 398.032 839.008 400.336 839.008 403.28C839.008 406.192 839.664 408.496 840.976 410.192C842.32 411.888 844.112 412.736 846.352 412.736ZM404.167 478.576C401.895 478.576 399.959 478.208 398.359 477.472C396.791 476.736 395.559 475.728 394.663 474.448C393.799 473.136 393.303 471.648 393.175 469.984L397.398 469.696C397.655 471.232 398.311 472.464 399.367 473.392C400.423 474.288 402.023 474.736 404.167 474.736C405.895 474.736 407.271 474.464 408.295 473.92C409.351 473.344 409.879 472.432 409.879 471.184C409.879 470.512 409.719 469.952 409.399 469.504C409.079 469.056 408.455 468.672 407.527 468.352C406.599 468 405.223 467.664 403.398 467.344C400.967 466.896 399.047 466.352 397.639 465.712C396.263 465.04 395.271 464.224 394.663 463.264C394.087 462.272 393.799 461.104 393.799 459.76C393.799 457.488 394.631 455.632 396.295 454.192C397.959 452.72 400.327 451.984 403.398 451.984C405.479 451.984 407.223 452.368 408.631 453.136C410.071 453.872 411.191 454.864 411.991 456.112C412.823 457.328 413.367 458.672 413.623 460.144L409.399 460.432C409.207 459.536 408.855 458.752 408.343 458.08C407.831 457.376 407.159 456.832 406.327 456.448C405.495 456.032 404.503 455.824 403.351 455.824C401.527 455.824 400.183 456.176 399.319 456.88C398.455 457.584 398.023 458.48 398.023 459.568C398.023 460.4 398.215 461.088 398.599 461.632C399.015 462.144 399.671 462.576 400.567 462.928C401.463 463.248 402.663 463.536 404.167 463.792C406.759 464.24 408.775 464.784 410.215 465.424C411.655 466.064 412.663 466.848 413.239 467.776C413.815 468.704 414.103 469.84 414.103 471.184C414.103 472.752 413.655 474.096 412.759 475.216C411.895 476.304 410.711 477.136 409.207 477.712C407.735 478.288 406.055 478.576 404.167 478.576ZM424.832 478C423.36 478 422.16 477.616 421.232 476.848C420.304 476.08 419.84 474.864 419.84 473.2V443.92H423.872V472.864C423.872 473.376 424 473.776 424.256 474.064C424.544 474.32 424.944 474.448 425.456 474.448H427.664V478H424.832ZM432.262 478V452.56H436.294V478H432.262ZM432.166 448.576V443.872H436.39V448.576H432.166ZM452.536 478.576C450.328 478.576 448.408 478.032 446.776 476.944C445.176 475.856 443.944 474.32 443.08 472.336C442.216 470.352 441.784 468 441.784 465.28C441.784 462.56 442.216 460.208 443.08 458.224C443.944 456.24 445.176 454.704 446.776 453.616C448.408 452.528 450.328 451.984 452.536 451.984C454.232 451.984 455.784 452.352 457.192 453.088C458.6 453.792 459.656 454.8 460.36 456.112V443.92H464.392V478H460.744L460.6 474.16C459.896 475.536 458.824 476.624 457.384 477.424C455.944 478.192 454.328 478.576 452.536 478.576ZM453.352 474.736C454.856 474.736 456.12 474.352 457.144 473.584C458.2 472.816 459 471.728 459.544 470.32C460.088 468.88 460.36 467.2 460.36 465.28C460.36 463.296 460.088 461.6 459.544 460.192C459 458.784 458.2 457.712 457.144 456.976C456.12 456.208 454.856 455.824 453.352 455.824C451.112 455.824 449.32 456.672 447.976 458.368C446.664 460.032 446.008 462.336 446.008 465.28C446.008 468.192 446.664 470.496 447.976 472.192C449.32 473.888 451.112 474.736 453.352 474.736ZM481.526 478.576C479.126 478.576 477.046 478.032 475.286 476.944C473.558 475.856 472.214 474.32 471.254 472.336C470.326 470.32 469.862 467.968 469.862 465.28C469.862 462.592 470.326 460.256 471.254 458.272C472.214 456.288 473.542 454.752 475.238 453.664C476.966 452.544 478.998 451.984 481.334 451.984C483.542 451.984 485.494 452.512 487.19 453.568C488.886 454.592 490.198 456.096 491.126 458.08C492.086 460.064 492.566 462.48 492.566 465.328V466.528H474.086C474.246 469.248 474.966 471.296 476.246 472.672C477.558 474.048 479.318 474.736 481.526 474.736C483.19 474.736 484.55 474.352 485.606 473.584C486.694 472.784 487.446 471.744 487.862 470.464L492.182 470.8C491.51 473.072 490.23 474.944 488.342 476.416C486.486 477.856 484.214 478.576 481.526 478.576ZM474.086 462.976H488.15C487.958 460.512 487.238 458.704 485.99 457.552C484.774 456.4 483.222 455.824 481.334 455.824C479.382 455.824 477.766 456.432 476.486 457.648C475.238 458.832 474.438 460.608 474.086 462.976ZM519.52 478.576C517.312 478.576 515.392 478.032 513.76 476.944C512.16 475.856 510.928 474.32 510.064 472.336C509.2 470.352 508.768 468 508.768 465.28C508.768 462.56 509.2 460.208 510.064 458.224C510.928 456.24 512.16 454.704 513.76 453.616C515.392 452.528 517.312 451.984 519.52 451.984C521.216 451.984 522.768 452.352 524.176 453.088C525.584 453.792 526.64 454.8 527.344 456.112V443.92H531.376V478H527.728L527.584 474.16C526.88 475.536 525.808 476.624 524.368 477.424C522.928 478.192 521.312 478.576 519.52 478.576ZM520.336 474.736C521.84 474.736 523.104 474.352 524.128 473.584C525.184 472.816 525.984 471.728 526.528 470.32C527.072 468.88 527.344 467.2 527.344 465.28C527.344 463.296 527.072 461.6 526.528 460.192C525.984 458.784 525.184 457.712 524.128 456.976C523.104 456.208 521.84 455.824 520.336 455.824C518.096 455.824 516.304 456.672 514.96 458.368C513.648 460.032 512.992 462.336 512.992 465.28C512.992 468.192 513.648 470.496 514.96 472.192C516.304 473.888 518.096 474.736 520.336 474.736ZM548.51 478.576C546.11 478.576 544.03 478.032 542.27 476.944C540.542 475.856 539.198 474.32 538.238 472.336C537.31 470.32 536.846 467.968 536.846 465.28C536.846 462.592 537.31 460.256 538.238 458.272C539.198 456.288 540.526 454.752 542.222 453.664C543.95 452.544 545.982 451.984 548.318 451.984C550.526 451.984 552.478 452.512 554.174 453.568C555.87 454.592 557.182 456.096 558.11 458.08C559.07 460.064 559.55 462.48 559.55 465.328V466.528H541.07C541.23 469.248 541.95 471.296 543.23 472.672C544.542 474.048 546.302 474.736 548.51 474.736C550.174 474.736 551.534 474.352 552.59 473.584C553.678 472.784 554.43 471.744 554.846 470.464L559.166 470.8C558.494 473.072 557.214 474.944 555.326 476.416C553.47 477.856 551.198 478.576 548.51 478.576ZM541.07 462.976H555.134C554.942 460.512 554.222 458.704 552.974 457.552C551.758 456.4 550.206 455.824 548.318 455.824C546.366 455.824 544.75 456.432 543.47 457.648C542.222 458.832 541.422 460.608 541.07 462.976ZM574.948 478.576C572.58 478.576 570.516 478.032 568.756 476.944C567.028 475.856 565.684 474.32 564.724 472.336C563.764 470.32 563.284 467.968 563.284 465.28C563.284 462.592 563.764 460.256 564.724 458.272C565.684 456.288 567.028 454.752 568.756 453.664C570.516 452.544 572.58 451.984 574.948 451.984C576.9 451.984 578.628 452.336 580.132 453.04C581.668 453.712 582.916 454.704 583.876 456.016C584.836 457.328 585.46 458.928 585.748 460.816L581.524 461.104C581.236 459.408 580.5 458.112 579.316 457.216C578.132 456.288 576.676 455.824 574.948 455.824C572.612 455.824 570.788 456.672 569.476 458.368C568.164 460.032 567.508 462.336 567.508 465.28C567.508 468.224 568.164 470.544 569.476 472.24C570.788 473.904 572.612 474.736 574.948 474.736C576.676 474.736 578.132 474.256 579.316 473.296C580.5 472.336 581.236 470.896 581.524 468.976L585.748 469.264C585.46 471.152 584.836 472.8 583.876 474.208C582.916 475.584 581.668 476.656 580.132 477.424C578.628 478.192 576.9 478.576 574.948 478.576ZM590.746 478V443.92H594.778V466.24L607.162 452.56H612.538L602.506 463.36L612.97 478H608.074L599.77 466.096L594.778 471.376V478H590.746ZM616.393 478V472.576H621.817V478H616.393Z" fill="white"/>
<path d="M321.66 258V194.1H343.71C354.09 194.1 362.07 196.89 367.65 202.47C373.23 207.99 376.02 215.88 376.02 226.14C376.02 236.34 373.26 244.2 367.74 249.72C362.28 255.24 354.45 258 344.25 258H321.66ZM335.34 246.48H343.71C349.89 246.48 354.45 244.83 357.39 241.53C360.39 238.17 361.89 233.01 361.89 226.05C361.89 219.09 360.39 213.96 357.39 210.66C354.45 207.3 349.89 205.62 343.71 205.62H335.34V246.48ZM408.021 259.08C403.101 259.08 398.811 258.06 395.151 256.02C391.551 253.92 388.731 250.98 386.691 247.2C384.711 243.42 383.721 238.98 383.721 233.88C383.721 228.78 384.711 224.37 386.691 220.65C388.731 216.87 391.551 213.93 395.151 211.83C398.751 209.73 403.011 208.68 407.931 208.68C412.731 208.68 416.901 209.73 420.441 211.83C423.981 213.93 426.711 216.93 428.631 220.83C430.611 224.73 431.601 229.38 431.601 234.78V237.48H397.671C397.851 241.32 398.871 244.17 400.731 246.03C402.651 247.89 405.171 248.82 408.291 248.82C410.571 248.82 412.461 248.34 413.961 247.38C415.521 246.42 416.631 244.95 417.291 242.97L430.881 243.78C429.621 248.58 426.951 252.33 422.871 255.03C418.791 257.73 413.841 259.08 408.021 259.08ZM397.671 229.2H417.741C417.561 225.66 416.571 223.02 414.771 221.28C413.031 219.54 410.751 218.67 407.931 218.67C405.111 218.67 402.771 219.6 400.911 221.46C399.111 223.26 398.031 225.84 397.671 229.2ZM461.814 259.08C456.894 259.08 452.604 258.06 448.944 256.02C445.284 253.92 442.434 250.98 440.394 247.2C438.354 243.42 437.334 238.98 437.334 233.88C437.334 228.78 438.354 224.37 440.394 220.65C442.434 216.87 445.284 213.93 448.944 211.83C452.604 209.73 456.894 208.68 461.814 208.68C466.074 208.68 469.884 209.43 473.244 210.93C476.664 212.43 479.424 214.59 481.524 217.41C483.624 220.23 484.914 223.62 485.394 227.58L471.444 228.21C471.024 225.21 469.944 222.96 468.204 221.46C466.524 219.9 464.394 219.12 461.814 219.12C458.454 219.12 455.844 220.41 453.984 222.99C452.124 225.57 451.194 229.2 451.194 233.88C451.194 238.56 452.124 242.22 453.984 244.86C455.844 247.44 458.454 248.73 461.814 248.73C464.394 248.73 466.554 247.95 468.294 246.39C470.034 244.77 471.084 242.34 471.444 239.1L485.394 239.64C484.974 243.6 483.714 247.05 481.614 249.99C479.574 252.87 476.844 255.12 473.424 256.74C470.064 258.3 466.194 259.08 461.814 259.08ZM492.854 258V194.1H506.354V229.56L524.264 209.76H540.464L521.744 229.65L541.004 258H526.244L513.014 237.3L506.354 244.41V258H492.854ZM547.346 258V209.76H560.126L560.576 223.8L559.586 223.53C560.366 218.67 561.746 215.16 563.726 213C565.706 210.84 568.436 209.76 571.916 209.76H576.326V220.92H571.916C569.396 220.92 567.326 221.25 565.706 221.91C564.086 222.57 562.856 223.62 562.016 225.06C561.236 226.5 560.846 228.45 560.846 230.91V258H547.346ZM601.827 258L624.867 194.1H641.067L664.107 258H649.887L645.207 244.41H620.637L615.957 258H601.827ZM624.507 233.16H641.427L632.967 208.5L624.507 233.16ZM670.234 258V194.1H683.914V258H670.234Z" fill="white"/>
<defs>
<filter id="filter1_f_14_32" x="-259.528" y="-276.746" width="1532.43" height="1311.9" filterUnits="userSpaceOnUse" color-interpolation-filters="sRGB">
<feFlood flood-opacity="0" result="BackgroundImageFix"/>
<feBlend mode="normal" in="SourceGraphic" in2="BackgroundImageFix" result="shape"/>
<feGaussianBlur stdDeviation="59.95" result="effect1_foregroundBlur_14_32"/>
</filter>
<linearGradient id="paint0_linear_14_32" x1="1014" y1="9.49995" x2="-2.10865e-05" y2="659" gradientUnits="userSpaceOnUse">
<stop stop-color="#171717"/>
<stop offset="0.0872262" stop-color="#171717"/>
</linearGradient>
<clipPath id="clip0_14_32">
<rect width="1014" height="659" fill="white"/>
</clipPath>
</defs>
</svg>
