<svg width="1014" height="659" viewBox="0 0 1014 659" fill="none" xmlns="http://www.w3.org/2000/svg">
<g opacity="0.7" clip-path="url(#clip0_14_21)">
<rect width="1014" height="659" fill="url(#paint0_linear_14_21)" fill-opacity="0.2"/>
<g filter="url(#filter1_f_14_21)">
<ellipse cx="258.518" cy="633.964" rx="181" ry="294.5" transform="rotate(22.1051 258.518 633.964)" fill="#424040"/>
<ellipse cx="731.823" cy="134.922" rx="130.598" ry="294.5" transform="rotate(8.73846 731.823 134.922)" fill="#424040"/>
<path fill-rule="evenodd" clip-rule="evenodd" d="M-27.9998 289.999C52.4913 222.509 103.381 194.756 208 169.499C302.493 167.709 355.389 173.821 448.5 289.999C515.748 405.761 541.411 475.157 564.5 607.499C634.361 854.767 704.183 841.879 871.5 607.499C1035.54 399.809 1081.72 314.262 1152.5 169.499C1150.26 105.415 1141.29 83.1486 1071 139.499C984.731 313.296 923.122 404.003 793 555.499C668.681 755.955 620.954 725.703 573 429.999C519.076 290.3 478.876 216.529 400.5 87.9993C133.968 -70.0432 -22.6624 55.6855 -74.3853 97.2038C-74.9353 97.6453 -75.4735 98.0773 -75.9998 98.4993C-126.018 138.607 -209.036 302.461 -27.9998 289.999Z" fill="#717171" stroke="black"/>
</g>
</g>
<path d="M160.705 385V350.92H172.945C176.753 350.92 179.713 351.832 181.825 353.656C183.937 355.48 184.993 358.008 184.993 361.24C184.993 363.416 184.513 365.304 183.553 366.904C182.593 368.472 181.217 369.672 179.425 370.504C177.633 371.336 175.473 371.752 172.945 371.752H164.833V385H160.705ZM164.833 367.72H172.945C175.505 367.72 177.425 367.176 178.705 366.088C180.017 365 180.673 363.384 180.673 361.24C180.673 359.16 180.017 357.592 178.705 356.536C177.425 355.48 175.505 354.952 172.945 354.952H164.833V367.72ZM190.879 385V359.56H194.431L194.623 365.992L194.239 365.848C194.559 363.672 195.247 362.088 196.303 361.096C197.391 360.072 198.831 359.56 200.623 359.56H203.119V363.4H200.671C199.391 363.4 198.319 363.64 197.455 364.12C196.623 364.568 195.983 365.256 195.535 366.184C195.119 367.08 194.911 368.232 194.911 369.64V385H190.879ZM217.081 385.576C214.745 385.576 212.697 385.032 210.937 383.944C209.177 382.856 207.817 381.32 206.857 379.336C205.897 377.32 205.417 374.968 205.417 372.28C205.417 369.56 205.897 367.208 206.857 365.224C207.817 363.24 209.177 361.704 210.937 360.616C212.697 359.528 214.745 358.984 217.081 358.984C219.417 358.984 221.449 359.528 223.177 360.616C224.937 361.704 226.297 363.24 227.257 365.224C228.217 367.208 228.697 369.56 228.697 372.28C228.697 374.968 228.217 377.32 227.257 379.336C226.297 381.32 224.937 382.856 223.177 383.944C221.449 385.032 219.417 385.576 217.081 385.576ZM217.081 381.736C219.417 381.736 221.225 380.904 222.505 379.24C223.817 377.544 224.473 375.224 224.473 372.28C224.473 369.336 223.817 367.032 222.505 365.368C221.225 363.672 219.417 362.824 217.081 362.824C214.745 362.824 212.921 363.672 211.609 365.368C210.297 367.032 209.641 369.336 209.641 372.28C209.641 375.224 210.297 377.544 211.609 379.24C212.921 380.904 214.745 381.736 217.081 381.736ZM243.216 385.576C241.008 385.576 239.088 385.032 237.456 383.944C235.856 382.856 234.624 381.32 233.76 379.336C232.896 377.352 232.464 375 232.464 372.28C232.464 369.56 232.896 367.208 233.76 365.224C234.624 363.24 235.856 361.704 237.456 360.616C239.088 359.528 241.008 358.984 243.216 358.984C244.912 358.984 246.464 359.352 247.872 360.088C249.28 360.792 250.336 361.8 251.04 363.112V350.92H255.072V385H251.424L251.28 381.16C250.576 382.536 249.504 383.624 248.064 384.424C246.624 385.192 245.008 385.576 243.216 385.576ZM244.032 381.736C245.536 381.736 246.8 381.352 247.824 380.584C248.88 379.816 249.68 378.728 250.224 377.32C250.768 375.88 251.04 374.2 251.04 372.28C251.04 370.296 250.768 368.6 250.224 367.192C249.68 365.784 248.88 364.712 247.824 363.976C246.8 363.208 245.536 362.824 244.032 362.824C241.792 362.824 240 363.672 238.656 365.368C237.344 367.032 236.688 369.336 236.688 372.28C236.688 375.192 237.344 377.496 238.656 379.192C240 380.888 241.792 381.736 244.032 381.736ZM270.153 385.576C267.625 385.576 265.593 384.728 264.057 383.032C262.553 381.304 261.801 378.936 261.801 375.928V359.56H265.833V374.824C265.833 377.288 266.265 379.112 267.129 380.296C268.025 381.448 269.385 382.024 271.209 382.024C273.225 382.024 274.809 381.384 275.961 380.104C277.113 378.792 277.689 377 277.689 374.728V359.56H281.721V385H277.881V378.712L278.505 379.048C277.993 381.128 277.017 382.744 275.577 383.896C274.137 385.016 272.329 385.576 270.153 385.576ZM298.878 385.576C296.51 385.576 294.446 385.032 292.686 383.944C290.958 382.856 289.614 381.32 288.654 379.336C287.694 377.32 287.214 374.968 287.214 372.28C287.214 369.592 287.694 367.256 288.654 365.272C289.614 363.288 290.958 361.752 292.686 360.664C294.446 359.544 296.51 358.984 298.878 358.984C300.83 358.984 302.558 359.336 304.062 360.04C305.598 360.712 306.846 361.704 307.806 363.016C308.766 364.328 309.39 365.928 309.678 367.816L305.454 368.104C305.166 366.408 304.43 365.112 303.246 364.216C302.062 363.288 300.606 362.824 298.878 362.824C296.542 362.824 294.718 363.672 293.406 365.368C292.094 367.032 291.438 369.336 291.438 372.28C291.438 375.224 292.094 377.544 293.406 379.24C294.718 380.904 296.542 381.736 298.878 381.736C300.606 381.736 302.062 381.256 303.246 380.296C304.43 379.336 305.166 377.896 305.454 375.976L309.678 376.264C309.39 378.152 308.766 379.8 307.806 381.208C306.846 382.584 305.598 383.656 304.062 384.424C302.558 385.192 300.83 385.576 298.878 385.576ZM323.004 385C320.7 385 318.988 384.472 317.868 383.416C316.78 382.36 316.236 380.712 316.236 378.472V353.608H320.268V378.376C320.268 379.528 320.524 380.328 321.036 380.776C321.548 381.224 322.332 381.448 323.388 381.448H327.036V385H323.004ZM312.492 363.112V359.56H327.036V363.112H312.492ZM332.207 385V359.56H336.239V385H332.207ZM332.111 355.576V350.872H336.335V355.576H332.111ZM353.393 385.576C351.057 385.576 349.009 385.032 347.249 383.944C345.489 382.856 344.129 381.32 343.169 379.336C342.209 377.32 341.729 374.968 341.729 372.28C341.729 369.56 342.209 367.208 343.169 365.224C344.129 363.24 345.489 361.704 347.249 360.616C349.009 359.528 351.057 358.984 353.393 358.984C355.729 358.984 357.761 359.528 359.489 360.616C361.249 361.704 362.609 363.24 363.569 365.224C364.529 367.208 365.009 369.56 365.009 372.28C365.009 374.968 364.529 377.32 363.569 379.336C362.609 381.32 361.249 382.856 359.489 383.944C357.761 385.032 355.729 385.576 353.393 385.576ZM353.393 381.736C355.729 381.736 357.537 380.904 358.817 379.24C360.129 377.544 360.785 375.224 360.785 372.28C360.785 369.336 360.129 367.032 358.817 365.368C357.537 363.672 355.729 362.824 353.393 362.824C351.057 362.824 349.233 363.672 347.921 365.368C346.609 367.032 345.953 369.336 345.953 372.28C345.953 375.224 346.609 377.544 347.921 379.24C349.233 380.904 351.057 381.736 353.393 381.736ZM370.504 385V359.56H374.2L374.344 366.04L373.864 365.608C374.184 364.104 374.744 362.872 375.544 361.912C376.344 360.92 377.304 360.184 378.424 359.704C379.576 359.224 380.808 358.984 382.12 358.984C384.072 358.984 385.672 359.416 386.92 360.28C388.2 361.144 389.144 362.312 389.752 363.784C390.392 365.224 390.712 366.84 390.712 368.632V385H386.68V369.784C386.68 368.216 386.488 366.904 386.104 365.848C385.752 364.76 385.176 363.944 384.376 363.4C383.576 362.824 382.536 362.536 381.256 362.536C379.304 362.536 377.688 363.16 376.408 364.408C375.16 365.624 374.536 367.416 374.536 369.784V385H370.504ZM396.667 372.904V369.112H412.555V372.904H396.667ZM427.768 385.576C425.496 385.576 423.56 385.208 421.96 384.472C420.392 383.736 419.16 382.728 418.264 381.448C417.4 380.136 416.904 378.648 416.776 376.984L421 376.696C421.256 378.232 421.912 379.464 422.968 380.392C424.024 381.288 425.624 381.736 427.768 381.736C429.496 381.736 430.872 381.464 431.896 380.92C432.952 380.344 433.48 379.432 433.48 378.184C433.48 377.512 433.32 376.952 433 376.504C432.68 376.056 432.056 375.672 431.128 375.352C430.2 375 428.824 374.664 427 374.344C424.568 373.896 422.648 373.352 421.24 372.712C419.864 372.04 418.872 371.224 418.264 370.264C417.688 369.272 417.4 368.104 417.4 366.76C417.4 364.488 418.232 362.632 419.896 361.192C421.56 359.72 423.928 358.984 427 358.984C429.08 358.984 430.824 359.368 432.232 360.136C433.672 360.872 434.792 361.864 435.592 363.112C436.424 364.328 436.968 365.672 437.224 367.144L433 367.432C432.808 366.536 432.456 365.752 431.944 365.08C431.432 364.376 430.76 363.832 429.928 363.448C429.096 363.032 428.104 362.824 426.952 362.824C425.128 362.824 423.784 363.176 422.92 363.88C422.056 364.584 421.624 365.48 421.624 366.568C421.624 367.4 421.816 368.088 422.2 368.632C422.616 369.144 423.272 369.576 424.168 369.928C425.064 370.248 426.264 370.536 427.768 370.792C430.36 371.24 432.376 371.784 433.816 372.424C435.256 373.064 436.264 373.848 436.84 374.776C437.416 375.704 437.704 376.84 437.704 378.184C437.704 379.752 437.256 381.096 436.36 382.216C435.496 383.304 434.312 384.136 432.808 384.712C431.336 385.288 429.656 385.576 427.768 385.576ZM451.535 385C449.231 385 447.519 384.472 446.399 383.416C445.311 382.36 444.767 380.712 444.767 378.472V353.608H448.799V378.376C448.799 379.528 449.055 380.328 449.567 380.776C450.079 381.224 450.863 381.448 451.919 381.448H455.567V385H451.535ZM441.023 363.112V359.56H455.567V363.112H441.023ZM461.254 385V359.56H464.806L464.998 365.992L464.614 365.848C464.934 363.672 465.622 362.088 466.678 361.096C467.766 360.072 469.206 359.56 470.998 359.56H473.494V363.4H471.046C469.766 363.4 468.694 363.64 467.83 364.12C466.998 364.568 466.358 365.256 465.91 366.184C465.494 367.08 465.286 368.232 465.286 369.64V385H461.254ZM486.856 385.576C484.328 385.576 482.296 384.728 480.76 383.032C479.256 381.304 478.504 378.936 478.504 375.928V359.56H482.536V374.824C482.536 377.288 482.968 379.112 483.832 380.296C484.728 381.448 486.088 382.024 487.912 382.024C489.928 382.024 491.512 381.384 492.664 380.104C493.816 378.792 494.392 377 494.392 374.728V359.56H498.424V385H494.584V378.712L495.208 379.048C494.696 381.128 493.72 382.744 492.28 383.896C490.84 385.016 489.032 385.576 486.856 385.576ZM515.581 385.576C513.213 385.576 511.149 385.032 509.389 383.944C507.661 382.856 506.317 381.32 505.357 379.336C504.397 377.32 503.917 374.968 503.917 372.28C503.917 369.592 504.397 367.256 505.357 365.272C506.317 363.288 507.661 361.752 509.389 360.664C511.149 359.544 513.213 358.984 515.581 358.984C517.533 358.984 519.261 359.336 520.765 360.04C522.301 360.712 523.549 361.704 524.509 363.016C525.469 364.328 526.093 365.928 526.381 367.816L522.157 368.104C521.869 366.408 521.133 365.112 519.949 364.216C518.765 363.288 517.309 362.824 515.581 362.824C513.245 362.824 511.421 363.672 510.109 365.368C508.797 367.032 508.141 369.336 508.141 372.28C508.141 375.224 508.797 377.544 510.109 379.24C511.421 380.904 513.245 381.736 515.581 381.736C517.309 381.736 518.765 381.256 519.949 380.296C521.133 379.336 521.869 377.896 522.157 375.976L526.381 376.264C526.093 378.152 525.469 379.8 524.509 381.208C523.549 382.584 522.301 383.656 520.765 384.424C519.261 385.192 517.533 385.576 515.581 385.576ZM539.707 385C537.403 385 535.691 384.472 534.571 383.416C533.483 382.36 532.939 380.712 532.939 378.472V353.608H536.971V378.376C536.971 379.528 537.227 380.328 537.739 380.776C538.251 381.224 539.035 381.448 540.091 381.448H543.739V385H539.707ZM529.195 363.112V359.56H543.739V363.112H529.195ZM557.262 385.576C554.734 385.576 552.702 384.728 551.166 383.032C549.662 381.304 548.91 378.936 548.91 375.928V359.56H552.942V374.824C552.942 377.288 553.374 379.112 554.238 380.296C555.134 381.448 556.494 382.024 558.318 382.024C560.334 382.024 561.918 381.384 563.07 380.104C564.222 378.792 564.798 377 564.798 374.728V359.56H568.83V385H564.99V378.712L565.614 379.048C565.102 381.128 564.126 382.744 562.686 383.896C561.246 385.016 559.438 385.576 557.262 385.576ZM576.52 385V359.56H580.072L580.264 365.992L579.88 365.848C580.2 363.672 580.888 362.088 581.944 361.096C583.032 360.072 584.472 359.56 586.264 359.56H588.76V363.4H586.312C585.032 363.4 583.96 363.64 583.096 364.12C582.264 364.568 581.624 365.256 581.176 366.184C580.76 367.08 580.552 368.232 580.552 369.64V385H576.52ZM602.721 385.576C600.321 385.576 598.241 385.032 596.481 383.944C594.753 382.856 593.409 381.32 592.449 379.336C591.521 377.32 591.057 374.968 591.057 372.28C591.057 369.592 591.521 367.256 592.449 365.272C593.409 363.288 594.737 361.752 596.433 360.664C598.161 359.544 600.193 358.984 602.529 358.984C604.737 358.984 606.689 359.512 608.385 360.568C610.081 361.592 611.393 363.096 612.321 365.08C613.281 367.064 613.761 369.48 613.761 372.328V373.528H595.281C595.441 376.248 596.161 378.296 597.441 379.672C598.753 381.048 600.513 381.736 602.721 381.736C604.385 381.736 605.745 381.352 606.801 380.584C607.889 379.784 608.641 378.744 609.057 377.464L613.377 377.8C612.705 380.072 611.425 381.944 609.537 383.416C607.681 384.856 605.409 385.576 602.721 385.576ZM595.281 369.976H609.345C609.153 367.512 608.433 365.704 607.185 364.552C605.969 363.4 604.417 362.824 602.529 362.824C600.577 362.824 598.961 363.432 597.681 364.648C596.433 365.832 595.633 367.608 595.281 369.976ZM628.247 385.576C626.039 385.576 624.119 385.032 622.487 383.944C620.887 382.856 619.655 381.32 618.791 379.336C617.927 377.352 617.495 375 617.495 372.28C617.495 369.56 617.927 367.208 618.791 365.224C619.655 363.24 620.887 361.704 622.487 360.616C624.119 359.528 626.039 358.984 628.247 358.984C629.943 358.984 631.495 359.352 632.903 360.088C634.311 360.792 635.367 361.8 636.071 363.112V350.92H640.103V385H636.455L636.311 381.16C635.607 382.536 634.535 383.624 633.095 384.424C631.655 385.192 630.039 385.576 628.247 385.576ZM629.063 381.736C630.567 381.736 631.831 381.352 632.855 380.584C633.911 379.816 634.711 378.728 635.255 377.32C635.799 375.88 636.071 374.2 636.071 372.28C636.071 370.296 635.799 368.6 635.255 367.192C634.711 365.784 633.911 364.712 632.855 363.976C631.831 363.208 630.567 362.824 629.063 362.824C626.823 362.824 625.031 363.672 623.687 365.368C622.375 367.032 621.719 369.336 621.719 372.28C621.719 375.192 622.375 377.496 623.687 379.192C625.031 380.888 626.823 381.736 629.063 381.736ZM660.346 385V350.92H673.258C675.658 350.92 677.722 351.336 679.45 352.168C681.178 353 682.506 354.2 683.434 355.768C684.394 357.304 684.874 359.128 684.874 361.24C684.874 362.776 684.506 364.152 683.77 365.368C683.066 366.552 682.154 367.496 681.034 368.2C679.914 368.904 678.746 369.288 677.53 369.352L677.242 368.92C679.322 368.92 680.954 369.4 682.138 370.36C683.354 371.32 684.058 372.856 684.25 374.968L685.21 385H681.034L680.17 375.4C680.042 373.992 679.53 372.952 678.634 372.28C677.77 371.608 676.346 371.272 674.362 371.272H664.474V385H660.346ZM664.474 367.24H673.786C675.866 367.24 677.514 366.712 678.73 365.656C679.946 364.6 680.554 363.096 680.554 361.144C680.554 359.16 679.93 357.64 678.682 356.584C677.434 355.496 675.626 354.952 673.258 354.952H664.474V367.24ZM692.596 385V350.92H714.004V354.952H696.724V365.944H713.428V369.88H696.724V380.968H714.388V385H692.596ZM733.23 385.768C730.606 385.768 728.318 385.272 726.366 384.28C724.414 383.288 722.862 381.928 721.71 380.2C720.59 378.44 719.934 376.408 719.742 374.104L724.062 373.816C724.286 375.512 724.782 376.952 725.55 378.136C726.318 379.32 727.342 380.216 728.622 380.824C729.934 381.432 731.502 381.736 733.326 381.736C734.926 381.736 736.286 381.528 737.406 381.112C738.526 380.696 739.374 380.088 739.95 379.288C740.558 378.488 740.862 377.512 740.862 376.36C740.862 375.304 740.606 374.376 740.094 373.576C739.614 372.744 738.67 371.992 737.262 371.32C735.886 370.616 733.838 369.928 731.118 369.256C728.494 368.584 726.398 367.848 724.83 367.048C723.294 366.248 722.174 365.272 721.47 364.12C720.798 362.968 720.462 361.544 720.462 359.848C720.462 357.928 720.91 356.248 721.806 354.808C722.734 353.336 724.046 352.2 725.742 351.4C727.438 350.568 729.454 350.152 731.79 350.152C734.286 350.152 736.43 350.632 738.222 351.592C740.014 352.52 741.438 353.8 742.494 355.432C743.55 357.064 744.206 358.92 744.462 361L740.142 361.288C739.95 359.912 739.502 358.696 738.798 357.64C738.126 356.552 737.198 355.704 736.014 355.096C734.83 354.488 733.39 354.184 731.694 354.184C729.582 354.184 727.902 354.696 726.654 355.72C725.406 356.712 724.782 358.024 724.782 359.656C724.782 360.712 725.022 361.592 725.502 362.296C726.014 362.968 726.91 363.576 728.19 364.12C729.47 364.632 731.31 365.192 733.71 365.8C736.558 366.504 738.814 367.352 740.478 368.344C742.174 369.304 743.374 370.424 744.078 371.704C744.814 372.984 745.182 374.44 745.182 376.072C745.182 378.056 744.67 379.784 743.646 381.256C742.622 382.696 741.214 383.816 739.422 384.616C737.63 385.384 735.566 385.768 733.23 385.768ZM757.067 385V354.952H746.459V350.92H771.803V354.952H761.195V385H757.067ZM785.327 385L797.615 350.92H803.183L815.471 385H810.959L807.551 375.304H793.247L789.839 385H785.327ZM794.639 371.272H806.159L800.399 354.52L794.639 371.272ZM819.908 385V350.92H832.148C835.956 350.92 838.916 351.832 841.028 353.656C843.14 355.48 844.196 358.008 844.196 361.24C844.196 363.416 843.716 365.304 842.756 366.904C841.796 368.472 840.42 369.672 838.628 370.504C836.836 371.336 834.676 371.752 832.148 371.752H824.036V385H819.908ZM824.036 367.72H832.148C834.708 367.72 836.628 367.176 837.908 366.088C839.22 365 839.876 363.384 839.876 361.24C839.876 359.16 839.22 357.592 837.908 356.536C836.628 355.48 834.708 354.952 832.148 354.952H824.036V367.72ZM850.189 385V350.92H854.317V385H850.189ZM215.406 447V419.256C215.406 417.368 215.95 415.848 217.038 414.696C218.126 413.512 219.822 412.92 222.126 412.92H226.158V416.472H222.414C221.422 416.472 220.67 416.744 220.158 417.288C219.678 417.832 219.438 418.584 219.438 419.544V447H215.406ZM211.95 425.112V421.56H225.822V425.112H211.95ZM239.674 447.576C237.338 447.576 235.29 447.032 233.53 445.944C231.77 444.856 230.41 443.32 229.45 441.336C228.49 439.32 228.01 436.968 228.01 434.28C228.01 431.56 228.49 429.208 229.45 427.224C230.41 425.24 231.77 423.704 233.53 422.616C235.29 421.528 237.338 420.984 239.674 420.984C242.01 420.984 244.042 421.528 245.77 422.616C247.53 423.704 248.89 425.24 249.85 427.224C250.81 429.208 251.29 431.56 251.29 434.28C251.29 436.968 250.81 439.32 249.85 441.336C248.89 443.32 247.53 444.856 245.77 445.944C244.042 447.032 242.01 447.576 239.674 447.576ZM239.674 443.736C242.01 443.736 243.818 442.904 245.098 441.24C246.41 439.544 247.066 437.224 247.066 434.28C247.066 431.336 246.41 429.032 245.098 427.368C243.818 425.672 242.01 424.824 239.674 424.824C237.338 424.824 235.514 425.672 234.202 427.368C232.89 429.032 232.234 431.336 232.234 434.28C232.234 437.224 232.89 439.544 234.202 441.24C235.514 442.904 237.338 443.736 239.674 443.736ZM256.785 447V421.56H260.337L260.529 427.992L260.145 427.848C260.465 425.672 261.153 424.088 262.209 423.096C263.297 422.072 264.737 421.56 266.529 421.56H269.025V425.4H266.577C265.297 425.4 264.225 425.64 263.361 426.12C262.529 426.568 261.889 427.256 261.441 428.184C261.025 429.08 260.817 430.232 260.817 431.64V447H256.785ZM293.837 447.576C291.213 447.576 289.117 446.968 287.549 445.752C286.013 444.536 285.245 442.84 285.245 440.664C285.245 438.488 285.885 436.776 287.165 435.528C288.445 434.28 290.477 433.4 293.261 432.888L302.285 431.208C302.285 429.064 301.773 427.464 300.749 426.408C299.757 425.352 298.253 424.824 296.237 424.824C294.477 424.824 293.085 425.224 292.061 426.024C291.037 426.792 290.333 427.912 289.949 429.384L285.677 429.048C286.157 426.648 287.309 424.712 289.133 423.24C290.989 421.736 293.357 420.984 296.237 420.984C299.501 420.984 301.997 421.912 303.725 423.768C305.453 425.592 306.317 428.12 306.317 431.352V441.864C306.317 442.44 306.413 442.856 306.605 443.112C306.829 443.336 307.181 443.448 307.661 443.448H308.669V447C308.541 447.032 308.333 447.048 308.045 447.048C307.757 447.08 307.453 447.096 307.133 447.096C305.981 447.096 305.037 446.92 304.301 446.568C303.597 446.184 303.085 445.608 302.765 444.84C302.445 444.04 302.285 443 302.285 441.72L302.765 441.816C302.541 442.904 301.997 443.896 301.133 444.792C300.269 445.656 299.197 446.344 297.917 446.856C296.637 447.336 295.277 447.576 293.837 447.576ZM294.221 444.024C295.917 444.024 297.357 443.704 298.541 443.064C299.757 442.392 300.685 441.496 301.325 440.376C301.965 439.224 302.285 437.944 302.285 436.536V434.712L294.029 436.248C292.301 436.568 291.101 437.064 290.429 437.736C289.789 438.376 289.469 439.224 289.469 440.28C289.469 441.464 289.885 442.392 290.717 443.064C291.581 443.704 292.749 444.024 294.221 444.024ZM333.33 447V433.08L321.282 412.92H326.178L335.394 428.856L344.61 412.92H349.506L337.458 433.08V447H333.33ZM359.628 447.576C357.292 447.576 355.244 447.032 353.484 445.944C351.724 444.856 350.364 443.32 349.404 441.336C348.444 439.32 347.964 436.968 347.964 434.28C347.964 431.56 348.444 429.208 349.404 427.224C350.364 425.24 351.724 423.704 353.484 422.616C355.244 421.528 357.292 420.984 359.628 420.984C361.964 420.984 363.996 421.528 365.724 422.616C367.484 423.704 368.844 425.24 369.804 427.224C370.764 429.208 371.244 431.56 371.244 434.28C371.244 436.968 370.764 439.32 369.804 441.336C368.844 443.32 367.484 444.856 365.724 445.944C363.996 447.032 361.964 447.576 359.628 447.576ZM359.628 443.736C361.964 443.736 363.772 442.904 365.052 441.24C366.364 439.544 367.02 437.224 367.02 434.28C367.02 431.336 366.364 429.032 365.052 427.368C363.772 425.672 361.964 424.824 359.628 424.824C357.292 424.824 355.468 425.672 354.156 427.368C352.844 429.032 352.188 431.336 352.188 434.28C352.188 437.224 352.844 439.544 354.156 441.24C355.468 442.904 357.292 443.736 359.628 443.736ZM385.09 447.576C382.562 447.576 380.53 446.728 378.994 445.032C377.49 443.304 376.738 440.936 376.738 437.928V421.56H380.77V436.824C380.77 439.288 381.202 441.112 382.066 442.296C382.962 443.448 384.322 444.024 386.146 444.024C388.162 444.024 389.746 443.384 390.898 442.104C392.05 440.792 392.626 439 392.626 436.728V421.56H396.658V447H392.818V440.712L393.442 441.048C392.93 443.128 391.954 444.744 390.514 445.896C389.074 447.016 387.266 447.576 385.09 447.576ZM408.832 447V416.952H398.224V412.92H423.568V416.952H412.96V447H408.832ZM432.95 447.576C430.422 447.576 428.39 446.728 426.854 445.032C425.35 443.304 424.598 440.936 424.598 437.928V421.56H428.63V436.824C428.63 439.288 429.062 441.112 429.926 442.296C430.822 443.448 432.182 444.024 434.006 444.024C436.022 444.024 437.606 443.384 438.758 442.104C439.91 440.792 440.486 439 440.486 436.728V421.56H444.518V447H440.678V440.712L441.302 441.048C440.79 443.128 439.814 444.744 438.374 445.896C436.934 447.016 435.126 447.576 432.95 447.576ZM463.168 447.576C461.408 447.576 459.84 447.192 458.464 446.424C457.088 445.624 456.032 444.536 455.296 443.16L455.152 447H451.504V412.92H455.536V425.112C456.176 424.056 457.168 423.112 458.512 422.28C459.856 421.416 461.408 420.984 463.168 420.984C465.408 420.984 467.344 421.528 468.976 422.616C470.608 423.704 471.872 425.24 472.768 427.224C473.664 429.208 474.112 431.56 474.112 434.28C474.112 437 473.664 439.352 472.768 441.336C471.872 443.32 470.608 444.856 468.976 445.944C467.344 447.032 465.408 447.576 463.168 447.576ZM462.928 443.736C465.072 443.736 466.768 442.888 468.016 441.192C469.264 439.496 469.888 437.192 469.888 434.28C469.888 431.336 469.264 429.032 468.016 427.368C466.768 425.672 465.104 424.824 463.024 424.824C461.456 424.824 460.112 425.208 458.992 425.976C457.872 426.712 457.008 427.784 456.4 429.192C455.824 430.6 455.536 432.296 455.536 434.28C455.536 436.2 455.824 437.88 456.4 439.32C457.008 440.728 457.856 441.816 458.944 442.584C460.064 443.352 461.392 443.736 462.928 443.736ZM489.518 447.576C487.118 447.576 485.038 447.032 483.278 445.944C481.55 444.856 480.206 443.32 479.246 441.336C478.318 439.32 477.854 436.968 477.854 434.28C477.854 431.592 478.318 429.256 479.246 427.272C480.206 425.288 481.534 423.752 483.23 422.664C484.958 421.544 486.99 420.984 489.326 420.984C491.534 420.984 493.486 421.512 495.182 422.568C496.878 423.592 498.19 425.096 499.118 427.08C500.078 429.064 500.558 431.48 500.558 434.328V435.528H482.078C482.238 438.248 482.958 440.296 484.238 441.672C485.55 443.048 487.31 443.736 489.518 443.736C491.182 443.736 492.542 443.352 493.598 442.584C494.686 441.784 495.438 440.744 495.854 439.464L500.174 439.8C499.502 442.072 498.222 443.944 496.334 445.416C494.478 446.856 492.206 447.576 489.518 447.576ZM482.078 431.976H496.142C495.95 429.512 495.23 427.704 493.982 426.552C492.766 425.4 491.214 424.824 489.326 424.824C487.374 424.824 485.758 425.432 484.478 426.648C483.23 427.832 482.43 429.608 482.078 431.976ZM504.76 434.904V431.112H520.648V434.904H504.76ZM531.59 447C530.118 447 528.918 446.616 527.99 445.848C527.062 445.08 526.598 443.864 526.598 442.2V412.92H530.63V441.864C530.63 442.376 530.758 442.776 531.014 443.064C531.302 443.32 531.702 443.448 532.214 443.448H534.422V447H531.59ZM539.02 447V421.56H543.052V447H539.02ZM538.924 417.576V412.872H543.148V417.576H538.924ZM549.801 447V412.92H553.833V435.24L566.217 421.56H571.593L561.561 432.36L572.025 447H567.129L558.825 435.096L553.833 440.376V447H549.801ZM585.659 447.576C583.259 447.576 581.179 447.032 579.419 445.944C577.691 444.856 576.347 443.32 575.387 441.336C574.459 439.32 573.995 436.968 573.995 434.28C573.995 431.592 574.459 429.256 575.387 427.272C576.347 425.288 577.675 423.752 579.371 422.664C581.099 421.544 583.131 420.984 585.467 420.984C587.675 420.984 589.627 421.512 591.323 422.568C593.019 423.592 594.331 425.096 595.259 427.08C596.219 429.064 596.699 431.48 596.699 434.328V435.528H578.219C578.379 438.248 579.099 440.296 580.379 441.672C581.691 443.048 583.451 443.736 585.659 443.736C587.323 443.736 588.683 443.352 589.739 442.584C590.827 441.784 591.579 440.744 591.995 439.464L596.315 439.8C595.643 442.072 594.363 443.944 592.475 445.416C590.619 446.856 588.347 447.576 585.659 447.576ZM578.219 431.976H592.283C592.091 429.512 591.371 427.704 590.123 426.552C588.907 425.4 587.355 424.824 585.467 424.824C583.515 424.824 581.899 425.432 580.619 426.648C579.371 427.832 578.571 429.608 578.219 431.976ZM614.629 454.2V421.56H618.373L618.469 427.032L617.893 426.744C618.533 424.856 619.589 423.432 621.061 422.472C622.565 421.48 624.293 420.984 626.245 420.984C628.773 420.984 630.837 421.608 632.437 422.856C634.069 424.104 635.269 425.736 636.037 427.752C636.837 429.768 637.237 431.944 637.237 434.28C637.237 436.616 636.837 438.792 636.037 440.808C635.269 442.824 634.069 444.456 632.437 445.704C630.837 446.952 628.773 447.576 626.245 447.576C624.933 447.576 623.701 447.352 622.549 446.904C621.429 446.456 620.469 445.832 619.669 445.032C618.901 444.232 618.373 443.288 618.085 442.2L618.661 441.528V454.2H614.629ZM625.861 443.736C628.069 443.736 629.813 442.904 631.093 441.24C632.373 439.576 633.013 437.256 633.013 434.28C633.013 431.304 632.373 428.984 631.093 427.32C629.813 425.656 628.069 424.824 625.861 424.824C624.389 424.824 623.109 425.176 622.021 425.88C620.965 426.584 620.133 427.64 619.525 429.048C618.949 430.456 618.661 432.2 618.661 434.28C618.661 436.36 618.949 438.104 619.525 439.512C620.101 440.92 620.933 441.976 622.021 442.68C623.109 443.384 624.389 443.736 625.861 443.736ZM647.934 447C646.462 447 645.262 446.616 644.334 445.848C643.406 445.08 642.942 443.864 642.942 442.2V412.92H646.974V441.864C646.974 442.376 647.102 442.776 647.358 443.064C647.646 443.32 648.046 443.448 648.558 443.448H650.766V447H647.934ZM662.602 447.576C659.978 447.576 657.882 446.968 656.314 445.752C654.778 444.536 654.01 442.84 654.01 440.664C654.01 438.488 654.65 436.776 655.93 435.528C657.21 434.28 659.242 433.4 662.026 432.888L671.05 431.208C671.05 429.064 670.538 427.464 669.514 426.408C668.522 425.352 667.018 424.824 665.002 424.824C663.242 424.824 661.85 425.224 660.826 426.024C659.802 426.792 659.098 427.912 658.714 429.384L654.442 429.048C654.922 426.648 656.074 424.712 657.898 423.24C659.754 421.736 662.122 420.984 665.002 420.984C668.266 420.984 670.762 421.912 672.49 423.768C674.218 425.592 675.082 428.12 675.082 431.352V441.864C675.082 442.44 675.178 442.856 675.37 443.112C675.594 443.336 675.946 443.448 676.426 443.448H677.434V447C677.306 447.032 677.098 447.048 676.81 447.048C676.522 447.08 676.218 447.096 675.898 447.096C674.746 447.096 673.802 446.92 673.066 446.568C672.362 446.184 671.85 445.608 671.53 444.84C671.21 444.04 671.05 443 671.05 441.72L671.53 441.816C671.306 442.904 670.762 443.896 669.898 444.792C669.034 445.656 667.962 446.344 666.682 446.856C665.402 447.336 664.042 447.576 662.602 447.576ZM662.986 444.024C664.682 444.024 666.122 443.704 667.306 443.064C668.522 442.392 669.45 441.496 670.09 440.376C670.73 439.224 671.05 437.944 671.05 436.536V434.712L662.794 436.248C661.066 436.568 659.866 437.064 659.194 437.736C658.554 438.376 658.234 439.224 658.234 440.28C658.234 441.464 658.65 442.392 659.482 443.064C660.346 443.704 661.514 444.024 662.986 444.024ZM690.035 447C687.731 447 686.019 446.472 684.899 445.416C683.811 444.36 683.267 442.712 683.267 440.472V415.608H687.299V440.376C687.299 441.528 687.555 442.328 688.067 442.776C688.579 443.224 689.363 443.448 690.419 443.448H694.067V447H690.035ZM679.523 425.112V421.56H694.067V425.112H679.523ZM700.375 447V419.256C700.375 417.368 700.919 415.848 702.007 414.696C703.095 413.512 704.791 412.92 707.095 412.92H711.127V416.472H707.383C706.391 416.472 705.639 416.744 705.127 417.288C704.647 417.832 704.407 418.584 704.407 419.544V447H700.375ZM696.919 425.112V421.56H710.791V425.112H696.919ZM724.643 447.576C722.307 447.576 720.259 447.032 718.499 445.944C716.739 444.856 715.379 443.32 714.419 441.336C713.459 439.32 712.979 436.968 712.979 434.28C712.979 431.56 713.459 429.208 714.419 427.224C715.379 425.24 716.739 423.704 718.499 422.616C720.259 421.528 722.307 420.984 724.643 420.984C726.979 420.984 729.011 421.528 730.739 422.616C732.499 423.704 733.859 425.24 734.819 427.224C735.779 429.208 736.259 431.56 736.259 434.28C736.259 436.968 735.779 439.32 734.819 441.336C733.859 443.32 732.499 444.856 730.739 445.944C729.011 447.032 726.979 447.576 724.643 447.576ZM724.643 443.736C726.979 443.736 728.787 442.904 730.067 441.24C731.379 439.544 732.035 437.224 732.035 434.28C732.035 431.336 731.379 429.032 730.067 427.368C728.787 425.672 726.979 424.824 724.643 424.824C722.307 424.824 720.483 425.672 719.171 427.368C717.859 429.032 717.203 431.336 717.203 434.28C717.203 437.224 717.859 439.544 719.171 441.24C720.483 442.904 722.307 443.736 724.643 443.736ZM741.754 447V421.56H745.306L745.498 427.992L745.114 427.848C745.434 425.672 746.122 424.088 747.178 423.096C748.266 422.072 749.706 421.56 751.498 421.56H753.994V425.4H751.546C750.266 425.4 749.194 425.64 748.33 426.12C747.498 426.568 746.858 427.256 746.41 428.184C745.994 429.08 745.786 430.232 745.786 431.64V447H741.754ZM758.02 447V421.56H761.716L761.86 427.992L761.284 427.8C761.572 426.392 762.068 425.192 762.772 424.2C763.508 423.176 764.404 422.392 765.46 421.848C766.516 421.272 767.684 420.984 768.964 420.984C771.172 420.984 772.964 421.592 774.34 422.808C775.748 424.024 776.628 425.72 776.98 427.896L776.212 427.848C776.468 426.376 776.932 425.144 777.604 424.152C778.308 423.128 779.204 422.344 780.292 421.8C781.38 421.256 782.628 420.984 784.036 420.984C785.86 420.984 787.396 421.368 788.644 422.136C789.892 422.872 790.836 423.96 791.476 425.4C792.116 426.84 792.436 428.584 792.436 430.632V447H788.404V431.496C788.404 429.192 787.956 427.464 787.06 426.312C786.164 425.128 784.836 424.536 783.076 424.536C781.892 424.536 780.852 424.824 779.956 425.4C779.092 425.976 778.42 426.808 777.94 427.896C777.46 428.952 777.22 430.248 777.22 431.784V447H773.188V431.784C773.188 429.512 772.788 427.736 771.988 426.456C771.188 425.176 769.844 424.536 767.956 424.536C766.772 424.536 765.732 424.824 764.836 425.4C763.972 425.976 763.284 426.808 762.772 427.896C762.292 428.984 762.052 430.28 762.052 431.784V447H758.02ZM798.385 447V441.576H803.809V447H798.385Z" fill="white"/>
<path d="M322.66 289V225.1H340.93L357.22 271.63L373.42 225.1H391.69V289H378.01V247.6L362.98 288.82H351.28L336.34 247.6V289H322.66ZM407.375 302.5V292.42H413.765C415.325 292.42 416.465 292.18 417.185 291.7C417.965 291.28 418.565 290.5 418.985 289.36L419.975 286.57H416.285L399.365 240.76H413.135L424.205 273.97L434.555 240.76H448.325L429.785 293.59C428.705 296.77 427.145 299.05 425.105 300.43C423.065 301.81 420.215 302.5 416.555 302.5H407.375ZM490.758 289V236.62H471.678V225.1H523.698V236.62H504.528V289H490.758ZM541.598 290.08C536.618 290.08 532.718 288.49 529.898 285.31C527.138 282.07 525.758 277.57 525.758 271.81V240.76H539.258V268.66C539.258 272.38 539.828 275.11 540.968 276.85C542.108 278.53 543.908 279.37 546.368 279.37C549.128 279.37 551.258 278.44 552.758 276.58C554.318 274.66 555.098 271.81 555.098 268.03V240.76H568.598V289H556.268L555.908 275.14L557.618 275.5C556.898 280.3 555.188 283.93 552.488 286.39C549.788 288.85 546.158 290.08 541.598 290.08ZM607.443 290.08C604.083 290.08 601.143 289.36 598.623 287.92C596.163 286.48 594.243 284.47 592.863 281.89L592.593 289H579.723V225.1H593.223V247.6C594.483 245.38 596.343 243.52 598.803 242.02C601.263 240.46 604.143 239.68 607.443 239.68C611.523 239.68 615.063 240.73 618.063 242.83C621.063 244.87 623.373 247.78 624.993 251.56C626.673 255.34 627.513 259.78 627.513 264.88C627.513 269.98 626.673 274.42 624.993 278.2C623.373 281.98 621.063 284.92 618.063 287.02C615.063 289.06 611.523 290.08 607.443 290.08ZM603.663 279.73C606.663 279.73 609.063 278.44 610.863 275.86C612.723 273.22 613.653 269.56 613.653 264.88C613.653 260.2 612.753 256.57 610.953 253.99C609.153 251.35 606.753 250.03 603.753 250.03C601.533 250.03 599.613 250.63 597.993 251.83C596.433 252.97 595.233 254.65 594.393 256.87C593.613 259.09 593.223 261.76 593.223 264.88C593.223 267.94 593.613 270.58 594.393 272.8C595.233 275.02 596.433 276.73 597.993 277.93C599.613 279.13 601.503 279.73 603.663 279.73ZM657.575 290.08C652.655 290.08 648.365 289.06 644.705 287.02C641.105 284.92 638.285 281.98 636.245 278.2C634.265 274.42 633.275 269.98 633.275 264.88C633.275 259.78 634.265 255.37 636.245 251.65C638.285 247.87 641.105 244.93 644.705 242.83C648.305 240.73 652.565 239.68 657.485 239.68C662.285 239.68 666.455 240.73 669.995 242.83C673.535 244.93 676.265 247.93 678.185 251.83C680.165 255.73 681.155 260.38 681.155 265.78V268.48H647.225C647.405 272.32 648.425 275.17 650.285 277.03C652.205 278.89 654.725 279.82 657.845 279.82C660.125 279.82 662.015 279.34 663.515 278.38C665.075 277.42 666.185 275.95 666.845 273.97L680.435 274.78C679.175 279.58 676.505 283.33 672.425 286.03C668.345 288.73 663.395 290.08 657.575 290.08ZM647.225 260.2H667.295C667.115 256.66 666.125 254.02 664.325 252.28C662.585 250.54 660.305 249.67 657.485 249.67C654.665 249.67 652.325 250.6 650.465 252.46C648.665 254.26 647.585 256.84 647.225 260.2Z" fill="white"/>
<defs>
<filter id="filter1_f_14_21" x="-259.528" y="-276.746" width="1532.43" height="1311.9" filterUnits="userSpaceOnUse" color-interpolation-filters="sRGB">
<feFlood flood-opacity="0" result="BackgroundImageFix"/>
<feBlend mode="normal" in="SourceGraphic" in2="BackgroundImageFix" result="shape"/>
<feGaussianBlur stdDeviation="59.95" result="effect1_foregroundBlur_14_21"/>
</filter>
<linearGradient id="paint0_linear_14_21" x1="1014" y1="9.49995" x2="-2.10865e-05" y2="659" gradientUnits="userSpaceOnUse">
<stop stop-color="#171717"/>
<stop offset="0.0872262" stop-color="#171717"/>
</linearGradient>
<clipPath id="clip0_14_21">
<rect width="1014" height="659" fill="white"/>
</clipPath>
</defs>
</svg>
