<svg width="1014" height="659" viewBox="0 0 1014 659" fill="none" xmlns="http://www.w3.org/2000/svg">
<g opacity="0.7" clip-path="url(#clip0_14_23)">
<rect width="1014" height="659" fill="url(#paint0_linear_14_23)" fill-opacity="0.2"/>
<g filter="url(#filter1_f_14_23)">
<ellipse cx="258.518" cy="633.964" rx="181" ry="294.5" transform="rotate(22.1051 258.518 633.964)" fill="#424040"/>
<ellipse cx="731.823" cy="134.922" rx="130.598" ry="294.5" transform="rotate(8.73846 731.823 134.922)" fill="#424040"/>
<path fill-rule="evenodd" clip-rule="evenodd" d="M-27.9998 289.999C52.4913 222.509 103.381 194.756 208 169.499C302.493 167.709 355.389 173.821 448.5 289.999C515.748 405.761 541.411 475.157 564.5 607.499C634.361 854.767 704.183 841.879 871.5 607.499C1035.54 399.809 1081.72 314.262 1152.5 169.499C1150.26 105.415 1141.29 83.1486 1071 139.499C984.731 313.296 923.122 404.003 793 555.499C668.681 755.955 620.954 725.703 573 429.999C519.076 290.3 478.876 216.529 400.5 87.9993C133.968 -70.0432 -22.6624 55.6855 -74.3853 97.2038C-74.9353 97.6453 -75.4735 98.0773 -75.9998 98.4993C-126.018 138.607 -209.036 302.461 -27.9998 289.999Z" fill="#717171" stroke="black"/>
</g>
</g>
<path d="M163.471 354V319.92H167.599V336.48L165.487 334.848H186.847L184.735 336.48V319.92H188.863V354H184.735V337.248L186.847 338.88H165.487L167.599 337.248V354H163.471ZM203.509 354.576C200.885 354.576 198.789 353.968 197.221 352.752C195.685 351.536 194.917 349.84 194.917 347.664C194.917 345.488 195.557 343.776 196.837 342.528C198.117 341.28 200.149 340.4 202.933 339.888L211.957 338.208C211.957 336.064 211.445 334.464 210.421 333.408C209.429 332.352 207.925 331.824 205.909 331.824C204.149 331.824 202.757 332.224 201.733 333.024C200.709 333.792 200.005 334.912 199.621 336.384L195.349 336.048C195.829 333.648 196.981 331.712 198.805 330.24C200.661 328.736 203.029 327.984 205.909 327.984C209.173 327.984 211.669 328.912 213.397 330.768C215.125 332.592 215.989 335.12 215.989 338.352V348.864C215.989 349.44 216.085 349.856 216.277 350.112C216.501 350.336 216.853 350.448 217.333 350.448H218.341V354C218.213 354.032 218.005 354.048 217.717 354.048C217.429 354.08 217.125 354.096 216.805 354.096C215.653 354.096 214.709 353.92 213.973 353.568C213.269 353.184 212.757 352.608 212.437 351.84C212.117 351.04 211.957 350 211.957 348.72L212.437 348.816C212.213 349.904 211.669 350.896 210.805 351.792C209.941 352.656 208.869 353.344 207.589 353.856C206.309 354.336 204.949 354.576 203.509 354.576ZM203.893 351.024C205.589 351.024 207.029 350.704 208.213 350.064C209.429 349.392 210.357 348.496 210.997 347.376C211.637 346.224 211.957 344.944 211.957 343.536V341.712L203.701 343.248C201.973 343.568 200.773 344.064 200.101 344.736C199.461 345.376 199.141 346.224 199.141 347.28C199.141 348.464 199.557 349.392 200.389 350.064C201.253 350.704 202.421 351.024 203.893 351.024ZM222.895 354V328.56H226.591L226.735 335.04L226.255 334.608C226.575 333.104 227.135 331.872 227.935 330.912C228.735 329.92 229.695 329.184 230.815 328.704C231.967 328.224 233.199 327.984 234.511 327.984C236.463 327.984 238.063 328.416 239.311 329.28C240.591 330.144 241.535 331.312 242.143 332.784C242.783 334.224 243.103 335.84 243.103 337.632V354H239.071V338.784C239.071 337.216 238.879 335.904 238.495 334.848C238.143 333.76 237.567 332.944 236.767 332.4C235.967 331.824 234.927 331.536 233.647 331.536C231.695 331.536 230.079 332.16 228.799 333.408C227.551 334.624 226.927 336.416 226.927 338.784V354H222.895ZM259.247 354.576C257.039 354.576 255.119 354.032 253.487 352.944C251.887 351.856 250.655 350.32 249.791 348.336C248.927 346.352 248.495 344 248.495 341.28C248.495 338.56 248.927 336.208 249.791 334.224C250.655 332.24 251.887 330.704 253.487 329.616C255.119 328.528 257.039 327.984 259.247 327.984C260.943 327.984 262.495 328.352 263.903 329.088C265.311 329.792 266.367 330.8 267.071 332.112V319.92H271.103V354H267.455L267.311 350.16C266.607 351.536 265.535 352.624 264.095 353.424C262.655 354.192 261.039 354.576 259.247 354.576ZM260.063 350.736C261.567 350.736 262.831 350.352 263.855 349.584C264.911 348.816 265.711 347.728 266.255 346.32C266.799 344.88 267.071 343.2 267.071 341.28C267.071 339.296 266.799 337.6 266.255 336.192C265.711 334.784 264.911 333.712 263.855 332.976C262.831 332.208 261.567 331.824 260.063 331.824C257.823 331.824 256.031 332.672 254.687 334.368C253.375 336.032 252.719 338.336 252.719 341.28C252.719 344.192 253.375 346.496 254.687 348.192C256.031 349.888 257.823 350.736 260.063 350.736ZM288.237 354.576C285.869 354.576 283.805 354.032 282.045 352.944C280.317 351.856 278.973 350.32 278.013 348.336C277.053 346.32 276.573 343.968 276.573 341.28C276.573 338.592 277.053 336.256 278.013 334.272C278.973 332.288 280.317 330.752 282.045 329.664C283.805 328.544 285.869 327.984 288.237 327.984C290.189 327.984 291.917 328.336 293.421 329.04C294.957 329.712 296.205 330.704 297.165 332.016C298.125 333.328 298.749 334.928 299.037 336.816L294.813 337.104C294.525 335.408 293.789 334.112 292.605 333.216C291.421 332.288 289.965 331.824 288.237 331.824C285.901 331.824 284.077 332.672 282.765 334.368C281.453 336.032 280.797 338.336 280.797 341.28C280.797 344.224 281.453 346.544 282.765 348.24C284.077 349.904 285.901 350.736 288.237 350.736C289.965 350.736 291.421 350.256 292.605 349.296C293.789 348.336 294.525 346.896 294.813 344.976L299.037 345.264C298.749 347.152 298.125 348.8 297.165 350.208C296.205 351.584 294.957 352.656 293.421 353.424C291.917 354.192 290.189 354.576 288.237 354.576ZM304.035 354V328.56H307.587L307.779 334.992L307.395 334.848C307.715 332.672 308.403 331.088 309.459 330.096C310.547 329.072 311.987 328.56 313.779 328.56H316.275V332.4H313.827C312.547 332.4 311.475 332.64 310.611 333.12C309.779 333.568 309.139 334.256 308.691 335.184C308.275 336.08 308.067 337.232 308.067 338.64V354H304.035ZM327.165 354.576C324.541 354.576 322.445 353.968 320.877 352.752C319.341 351.536 318.573 349.84 318.573 347.664C318.573 345.488 319.213 343.776 320.493 342.528C321.773 341.28 323.805 340.4 326.589 339.888L335.613 338.208C335.613 336.064 335.101 334.464 334.077 333.408C333.085 332.352 331.581 331.824 329.565 331.824C327.805 331.824 326.413 332.224 325.389 333.024C324.365 333.792 323.661 334.912 323.277 336.384L319.005 336.048C319.485 333.648 320.637 331.712 322.461 330.24C324.317 328.736 326.685 327.984 329.565 327.984C332.829 327.984 335.325 328.912 337.053 330.768C338.781 332.592 339.645 335.12 339.645 338.352V348.864C339.645 349.44 339.741 349.856 339.933 350.112C340.157 350.336 340.509 350.448 340.989 350.448H341.997V354C341.869 354.032 341.661 354.048 341.373 354.048C341.085 354.08 340.781 354.096 340.461 354.096C339.309 354.096 338.365 353.92 337.629 353.568C336.925 353.184 336.413 352.608 336.093 351.84C335.773 351.04 335.613 350 335.613 348.72L336.093 348.816C335.869 349.904 335.325 350.896 334.461 351.792C333.597 352.656 332.525 353.344 331.245 353.856C329.965 354.336 328.605 354.576 327.165 354.576ZM327.549 351.024C329.245 351.024 330.685 350.704 331.869 350.064C333.085 349.392 334.013 348.496 334.653 347.376C335.293 346.224 335.613 344.944 335.613 343.536V341.712L327.357 343.248C325.629 343.568 324.429 344.064 323.757 344.736C323.117 345.376 322.797 346.224 322.797 347.28C322.797 348.464 323.213 349.392 324.045 350.064C324.909 350.704 326.077 351.024 327.549 351.024ZM347.688 354V326.256C347.688 324.368 348.232 322.848 349.32 321.696C350.408 320.512 352.104 319.92 354.408 319.92H358.44V323.472H354.696C353.704 323.472 352.952 323.744 352.44 324.288C351.96 324.832 351.72 325.584 351.72 326.544V354H347.688ZM344.232 332.112V328.56H358.104V332.112H344.232ZM371.519 354C369.215 354 367.503 353.472 366.383 352.416C365.295 351.36 364.751 349.712 364.751 347.472V322.608H368.783V347.376C368.783 348.528 369.039 349.328 369.551 349.776C370.063 350.224 370.847 350.448 371.903 350.448H375.551V354H371.519ZM361.007 332.112V328.56H375.551V332.112H361.007ZM390.19 354.576C387.79 354.576 385.71 354.032 383.95 352.944C382.222 351.856 380.878 350.32 379.918 348.336C378.99 346.32 378.526 343.968 378.526 341.28C378.526 338.592 378.99 336.256 379.918 334.272C380.878 332.288 382.206 330.752 383.902 329.664C385.63 328.544 387.662 327.984 389.998 327.984C392.206 327.984 394.158 328.512 395.854 329.568C397.55 330.592 398.862 332.096 399.79 334.08C400.75 336.064 401.23 338.48 401.23 341.328V342.528H382.75C382.91 345.248 383.63 347.296 384.91 348.672C386.222 350.048 387.982 350.736 390.19 350.736C391.854 350.736 393.214 350.352 394.27 349.584C395.358 348.784 396.11 347.744 396.526 346.464L400.846 346.8C400.174 349.072 398.894 350.944 397.006 352.416C395.15 353.856 392.878 354.576 390.19 354.576ZM382.75 338.976H396.814C396.622 336.512 395.902 334.704 394.654 333.552C393.438 332.4 391.886 331.824 389.998 331.824C388.046 331.824 386.43 332.432 385.15 333.648C383.902 334.832 383.102 336.608 382.75 338.976ZM415.716 354.576C413.508 354.576 411.588 354.032 409.956 352.944C408.356 351.856 407.124 350.32 406.26 348.336C405.396 346.352 404.964 344 404.964 341.28C404.964 338.56 405.396 336.208 406.26 334.224C407.124 332.24 408.356 330.704 409.956 329.616C411.588 328.528 413.508 327.984 415.716 327.984C417.412 327.984 418.964 328.352 420.372 329.088C421.78 329.792 422.836 330.8 423.54 332.112V319.92H427.572V354H423.924L423.78 350.16C423.076 351.536 422.004 352.624 420.564 353.424C419.124 354.192 417.508 354.576 415.716 354.576ZM416.532 350.736C418.036 350.736 419.3 350.352 420.324 349.584C421.38 348.816 422.18 347.728 422.724 346.32C423.268 344.88 423.54 343.2 423.54 341.28C423.54 339.296 423.268 337.6 422.724 336.192C422.18 334.784 421.38 333.712 420.324 332.976C419.3 332.208 418.036 331.824 416.532 331.824C414.292 331.824 412.5 332.672 411.156 334.368C409.844 336.032 409.188 338.336 409.188 341.28C409.188 344.192 409.844 346.496 411.156 348.192C412.5 349.888 414.292 350.736 416.532 350.736ZM456.262 354.576C454.054 354.576 452.134 354.032 450.502 352.944C448.902 351.856 447.67 350.32 446.806 348.336C445.942 346.352 445.51 344 445.51 341.28C445.51 338.56 445.942 336.208 446.806 334.224C447.67 332.24 448.902 330.704 450.502 329.616C452.134 328.528 454.054 327.984 456.262 327.984C457.958 327.984 459.51 328.352 460.918 329.088C462.326 329.792 463.382 330.8 464.086 332.112V319.92H468.118V354H464.47L464.326 350.16C463.622 351.536 462.55 352.624 461.11 353.424C459.67 354.192 458.054 354.576 456.262 354.576ZM457.078 350.736C458.582 350.736 459.846 350.352 460.87 349.584C461.926 348.816 462.726 347.728 463.27 346.32C463.814 344.88 464.086 343.2 464.086 341.28C464.086 339.296 463.814 337.6 463.27 336.192C462.726 334.784 461.926 333.712 460.87 332.976C459.846 332.208 458.582 331.824 457.078 331.824C454.838 331.824 453.046 332.672 451.702 334.368C450.39 336.032 449.734 338.336 449.734 341.28C449.734 344.192 450.39 346.496 451.702 348.192C453.046 349.888 454.838 350.736 457.078 350.736ZM485.253 354.576C482.853 354.576 480.773 354.032 479.013 352.944C477.285 351.856 475.941 350.32 474.981 348.336C474.053 346.32 473.589 343.968 473.589 341.28C473.589 338.592 474.053 336.256 474.981 334.272C475.941 332.288 477.269 330.752 478.965 329.664C480.693 328.544 482.725 327.984 485.061 327.984C487.269 327.984 489.221 328.512 490.917 329.568C492.613 330.592 493.925 332.096 494.853 334.08C495.813 336.064 496.293 338.48 496.293 341.328V342.528H477.813C477.973 345.248 478.693 347.296 479.973 348.672C481.285 350.048 483.045 350.736 485.253 350.736C486.917 350.736 488.277 350.352 489.333 349.584C490.421 348.784 491.173 347.744 491.589 346.464L495.909 346.8C495.237 349.072 493.957 350.944 492.069 352.416C490.213 353.856 487.941 354.576 485.253 354.576ZM477.813 338.976H491.877C491.685 336.512 490.965 334.704 489.717 333.552C488.501 332.4 486.949 331.824 485.061 331.824C483.109 331.824 481.493 332.432 480.213 333.648C478.965 334.832 478.165 336.608 477.813 338.976ZM507.484 354L498.22 328.56H502.636L510.028 349.872L517.42 328.56H521.836L512.572 354H507.484ZM535.409 354.576C533.009 354.576 530.929 354.032 529.169 352.944C527.441 351.856 526.097 350.32 525.137 348.336C524.209 346.32 523.745 343.968 523.745 341.28C523.745 338.592 524.209 336.256 525.137 334.272C526.097 332.288 527.425 330.752 529.121 329.664C530.849 328.544 532.881 327.984 535.217 327.984C537.425 327.984 539.377 328.512 541.073 329.568C542.769 330.592 544.081 332.096 545.009 334.08C545.969 336.064 546.449 338.48 546.449 341.328V342.528H527.969C528.129 345.248 528.849 347.296 530.129 348.672C531.441 350.048 533.201 350.736 535.409 350.736C537.073 350.736 538.433 350.352 539.489 349.584C540.577 348.784 541.329 347.744 541.745 346.464L546.065 346.8C545.393 349.072 544.113 350.944 542.225 352.416C540.369 353.856 538.097 354.576 535.409 354.576ZM527.969 338.976H542.033C541.841 336.512 541.121 334.704 539.873 333.552C538.657 332.4 537.105 331.824 535.217 331.824C533.265 331.824 531.649 332.432 530.369 333.648C529.121 334.832 528.321 336.608 527.969 338.976ZM557.137 354C555.665 354 554.465 353.616 553.537 352.848C552.609 352.08 552.145 350.864 552.145 349.2V319.92H556.177V348.864C556.177 349.376 556.305 349.776 556.561 350.064C556.849 350.32 557.249 350.448 557.761 350.448H559.969V354H557.137ZM574.596 354.576C572.26 354.576 570.212 354.032 568.452 352.944C566.692 351.856 565.332 350.32 564.372 348.336C563.412 346.32 562.932 343.968 562.932 341.28C562.932 338.56 563.412 336.208 564.372 334.224C565.332 332.24 566.692 330.704 568.452 329.616C570.212 328.528 572.26 327.984 574.596 327.984C576.932 327.984 578.964 328.528 580.692 329.616C582.452 330.704 583.812 332.24 584.772 334.224C585.732 336.208 586.212 338.56 586.212 341.28C586.212 343.968 585.732 346.32 584.772 348.336C583.812 350.32 582.452 351.856 580.692 352.944C578.964 354.032 576.932 354.576 574.596 354.576ZM574.596 350.736C576.932 350.736 578.74 349.904 580.02 348.24C581.332 346.544 581.988 344.224 581.988 341.28C581.988 338.336 581.332 336.032 580.02 334.368C578.74 332.672 576.932 331.824 574.596 331.824C572.26 331.824 570.436 332.672 569.124 334.368C567.812 336.032 567.156 338.336 567.156 341.28C567.156 344.224 567.812 346.544 569.124 348.24C570.436 349.904 572.26 350.736 574.596 350.736ZM591.707 361.2V328.56H595.451L595.547 334.032L594.971 333.744C595.611 331.856 596.667 330.432 598.139 329.472C599.643 328.48 601.371 327.984 603.323 327.984C605.851 327.984 607.915 328.608 609.515 329.856C611.147 331.104 612.347 332.736 613.115 334.752C613.915 336.768 614.315 338.944 614.315 341.28C614.315 343.616 613.915 345.792 613.115 347.808C612.347 349.824 611.147 351.456 609.515 352.704C607.915 353.952 605.851 354.576 603.323 354.576C602.011 354.576 600.779 354.352 599.627 353.904C598.507 353.456 597.547 352.832 596.747 352.032C595.979 351.232 595.451 350.288 595.163 349.2L595.739 348.528V361.2H591.707ZM602.939 350.736C605.147 350.736 606.891 349.904 608.171 348.24C609.451 346.576 610.091 344.256 610.091 341.28C610.091 338.304 609.451 335.984 608.171 334.32C606.891 332.656 605.147 331.824 602.939 331.824C601.467 331.824 600.187 332.176 599.099 332.88C598.043 333.584 597.211 334.64 596.603 336.048C596.027 337.456 595.739 339.2 595.739 341.28C595.739 343.36 596.027 345.104 596.603 346.512C597.179 347.92 598.011 348.976 599.099 349.68C600.187 350.384 601.467 350.736 602.939 350.736ZM629.721 354.576C627.321 354.576 625.241 354.032 623.481 352.944C621.753 351.856 620.409 350.32 619.449 348.336C618.521 346.32 618.057 343.968 618.057 341.28C618.057 338.592 618.521 336.256 619.449 334.272C620.409 332.288 621.737 330.752 623.433 329.664C625.161 328.544 627.193 327.984 629.529 327.984C631.737 327.984 633.689 328.512 635.385 329.568C637.081 330.592 638.393 332.096 639.321 334.08C640.281 336.064 640.761 338.48 640.761 341.328V342.528H622.281C622.441 345.248 623.161 347.296 624.441 348.672C625.753 350.048 627.513 350.736 629.721 350.736C631.385 350.736 632.745 350.352 633.801 349.584C634.889 348.784 635.641 347.744 636.057 346.464L640.377 346.8C639.705 349.072 638.425 350.944 636.537 352.416C634.681 353.856 632.409 354.576 629.721 354.576ZM622.281 338.976H636.345C636.153 336.512 635.433 334.704 634.185 333.552C632.969 332.4 631.417 331.824 629.529 331.824C627.577 331.824 625.961 332.432 624.681 333.648C623.433 334.832 622.633 336.608 622.281 338.976ZM646.223 354V328.56H649.775L649.967 334.992L649.583 334.848C649.903 332.672 650.591 331.088 651.647 330.096C652.735 329.072 654.175 328.56 655.967 328.56H658.463V332.4H656.015C654.735 332.4 653.663 332.64 652.799 333.12C651.967 333.568 651.327 334.256 650.879 335.184C650.463 336.08 650.255 337.232 650.255 338.64V354H646.223ZM676.41 361.2V328.56H680.154L680.25 334.032L679.674 333.744C680.314 331.856 681.37 330.432 682.842 329.472C684.346 328.48 686.074 327.984 688.026 327.984C690.554 327.984 692.618 328.608 694.218 329.856C695.85 331.104 697.05 332.736 697.818 334.752C698.618 336.768 699.018 338.944 699.018 341.28C699.018 343.616 698.618 345.792 697.818 347.808C697.05 349.824 695.85 351.456 694.218 352.704C692.618 353.952 690.554 354.576 688.026 354.576C686.714 354.576 685.482 354.352 684.33 353.904C683.21 353.456 682.25 352.832 681.45 352.032C680.682 351.232 680.154 350.288 679.866 349.2L680.442 348.528V361.2H676.41ZM687.642 350.736C689.85 350.736 691.594 349.904 692.874 348.24C694.154 346.576 694.794 344.256 694.794 341.28C694.794 338.304 694.154 335.984 692.874 334.32C691.594 332.656 689.85 331.824 687.642 331.824C686.17 331.824 684.89 332.176 683.802 332.88C682.746 333.584 681.914 334.64 681.306 336.048C680.73 337.456 680.442 339.2 680.442 341.28C680.442 343.36 680.73 345.104 681.306 346.512C681.882 347.92 682.714 348.976 683.802 349.68C684.89 350.384 686.17 350.736 687.642 350.736ZM714.424 354.576C712.088 354.576 710.04 354.032 708.28 352.944C706.52 351.856 705.16 350.32 704.2 348.336C703.24 346.32 702.76 343.968 702.76 341.28C702.76 338.56 703.24 336.208 704.2 334.224C705.16 332.24 706.52 330.704 708.28 329.616C710.04 328.528 712.088 327.984 714.424 327.984C716.76 327.984 718.792 328.528 720.52 329.616C722.28 330.704 723.64 332.24 724.6 334.224C725.56 336.208 726.04 338.56 726.04 341.28C726.04 343.968 725.56 346.32 724.6 348.336C723.64 350.32 722.28 351.856 720.52 352.944C718.792 354.032 716.76 354.576 714.424 354.576ZM714.424 350.736C716.76 350.736 718.568 349.904 719.848 348.24C721.16 346.544 721.816 344.224 721.816 341.28C721.816 338.336 721.16 336.032 719.848 334.368C718.568 332.672 716.76 331.824 714.424 331.824C712.088 331.824 710.264 332.672 708.952 334.368C707.64 336.032 706.984 338.336 706.984 341.28C706.984 344.224 707.64 346.544 708.952 348.24C710.264 349.904 712.088 350.736 714.424 350.736ZM731.535 354V328.56H735.087L735.279 334.992L734.895 334.848C735.215 332.672 735.903 331.088 736.959 330.096C738.047 329.072 739.487 328.56 741.279 328.56H743.775V332.4H741.327C740.047 332.4 738.975 332.64 738.111 333.12C737.279 333.568 736.639 334.256 736.191 335.184C735.775 336.08 735.567 337.232 735.567 338.64V354H731.535ZM756.644 354C754.34 354 752.628 353.472 751.508 352.416C750.42 351.36 749.876 349.712 749.876 347.472V322.608H753.908V347.376C753.908 348.528 754.164 349.328 754.676 349.776C755.188 350.224 755.972 350.448 757.028 350.448H760.676V354H756.644ZM746.132 332.112V328.56H760.676V332.112H746.132ZM766.984 354V326.256C766.984 324.368 767.528 322.848 768.616 321.696C769.704 320.512 771.4 319.92 773.704 319.92H777.736V323.472H773.992C773 323.472 772.248 323.744 771.736 324.288C771.256 324.832 771.016 325.584 771.016 326.544V354H766.984ZM763.528 332.112V328.56H777.4V332.112H763.528ZM791.253 354.576C788.917 354.576 786.869 354.032 785.109 352.944C783.349 351.856 781.989 350.32 781.029 348.336C780.069 346.32 779.589 343.968 779.589 341.28C779.589 338.56 780.069 336.208 781.029 334.224C781.989 332.24 783.349 330.704 785.109 329.616C786.869 328.528 788.917 327.984 791.253 327.984C793.589 327.984 795.621 328.528 797.349 329.616C799.109 330.704 800.469 332.24 801.429 334.224C802.389 336.208 802.869 338.56 802.869 341.28C802.869 343.968 802.389 346.32 801.429 348.336C800.469 350.32 799.109 351.856 797.349 352.944C795.621 354.032 793.589 354.576 791.253 354.576ZM791.253 350.736C793.589 350.736 795.397 349.904 796.677 348.24C797.989 346.544 798.645 344.224 798.645 341.28C798.645 338.336 797.989 336.032 796.677 334.368C795.397 332.672 793.589 331.824 791.253 331.824C788.917 331.824 787.093 332.672 785.781 334.368C784.469 336.032 783.813 338.336 783.813 341.28C783.813 344.224 784.469 346.544 785.781 348.24C787.093 349.904 788.917 350.736 791.253 350.736ZM813.59 354C812.118 354 810.918 353.616 809.99 352.848C809.062 352.08 808.598 350.864 808.598 349.2V319.92H812.63V348.864C812.63 349.376 812.758 349.776 813.014 350.064C813.302 350.32 813.702 350.448 814.214 350.448H816.422V354H813.59ZM821.02 354V328.56H825.052V354H821.02ZM820.924 324.576V319.872H825.148V324.576H820.924ZM842.206 354.576C839.87 354.576 837.822 354.032 836.062 352.944C834.302 351.856 832.942 350.32 831.982 348.336C831.022 346.32 830.542 343.968 830.542 341.28C830.542 338.56 831.022 336.208 831.982 334.224C832.942 332.24 834.302 330.704 836.062 329.616C837.822 328.528 839.87 327.984 842.206 327.984C844.542 327.984 846.574 328.528 848.302 329.616C850.062 330.704 851.422 332.24 852.382 334.224C853.342 336.208 853.822 338.56 853.822 341.28C853.822 343.968 853.342 346.32 852.382 348.336C851.422 350.32 850.062 351.856 848.302 352.944C846.574 354.032 844.542 354.576 842.206 354.576ZM842.206 350.736C844.542 350.736 846.35 349.904 847.63 348.24C848.942 346.544 849.598 344.224 849.598 341.28C849.598 338.336 848.942 336.032 847.63 334.368C846.35 332.672 844.542 331.824 842.206 331.824C839.87 331.824 838.046 332.672 836.734 334.368C835.422 336.032 834.766 338.336 834.766 341.28C834.766 344.224 835.422 346.544 836.734 348.24C838.046 349.904 839.87 350.736 842.206 350.736ZM176.213 416.576C173.941 416.576 172.005 416.208 170.405 415.472C168.837 414.736 167.605 413.728 166.709 412.448C165.845 411.136 165.349 409.648 165.221 407.984L169.445 407.696C169.701 409.232 170.357 410.464 171.413 411.392C172.469 412.288 174.069 412.736 176.213 412.736C177.941 412.736 179.317 412.464 180.341 411.92C181.397 411.344 181.925 410.432 181.925 409.184C181.925 408.512 181.765 407.952 181.445 407.504C181.125 407.056 180.501 406.672 179.573 406.352C178.645 406 177.269 405.664 175.445 405.344C173.013 404.896 171.093 404.352 169.685 403.712C168.309 403.04 167.317 402.224 166.709 401.264C166.133 400.272 165.845 399.104 165.845 397.76C165.845 395.488 166.677 393.632 168.341 392.192C170.005 390.72 172.373 389.984 175.445 389.984C177.525 389.984 179.269 390.368 180.677 391.136C182.117 391.872 183.237 392.864 184.037 394.112C184.869 395.328 185.413 396.672 185.669 398.144L181.445 398.432C181.253 397.536 180.901 396.752 180.389 396.08C179.877 395.376 179.205 394.832 178.373 394.448C177.541 394.032 176.549 393.824 175.397 393.824C173.573 393.824 172.229 394.176 171.365 394.88C170.501 395.584 170.069 396.48 170.069 397.568C170.069 398.4 170.261 399.088 170.645 399.632C171.061 400.144 171.717 400.576 172.613 400.928C173.509 401.248 174.709 401.536 176.213 401.792C178.805 402.24 180.821 402.784 182.261 403.424C183.701 404.064 184.709 404.848 185.285 405.776C185.861 406.704 186.149 407.84 186.149 409.184C186.149 410.752 185.701 412.096 184.805 413.216C183.941 414.304 182.757 415.136 181.253 415.712C179.781 416.288 178.101 416.576 176.213 416.576ZM191.653 416V381.92H195.685V396.176L195.205 396.08C195.525 394.672 196.069 393.52 196.837 392.624C197.605 391.728 198.549 391.072 199.669 390.656C200.789 390.208 202.021 389.984 203.365 389.984C205.189 389.984 206.725 390.4 207.973 391.232C209.253 392.032 210.213 393.168 210.853 394.64C211.525 396.08 211.861 397.744 211.861 399.632V416H207.829V400.784C207.829 398.32 207.381 396.496 206.485 395.312C205.621 394.128 204.293 393.536 202.501 393.536C200.453 393.536 198.805 394.16 197.557 395.408C196.309 396.656 195.685 398.464 195.685 400.832V416H191.653ZM228.917 416.576C226.581 416.576 224.533 416.032 222.773 414.944C221.013 413.856 219.653 412.32 218.693 410.336C217.733 408.32 217.253 405.968 217.253 403.28C217.253 400.56 217.733 398.208 218.693 396.224C219.653 394.24 221.013 392.704 222.773 391.616C224.533 390.528 226.581 389.984 228.917 389.984C231.253 389.984 233.285 390.528 235.013 391.616C236.773 392.704 238.133 394.24 239.093 396.224C240.053 398.208 240.533 400.56 240.533 403.28C240.533 405.968 240.053 408.32 239.093 410.336C238.133 412.32 236.773 413.856 235.013 414.944C233.285 416.032 231.253 416.576 228.917 416.576ZM228.917 412.736C231.253 412.736 233.061 411.904 234.341 410.24C235.653 408.544 236.309 406.224 236.309 403.28C236.309 400.336 235.653 398.032 234.341 396.368C233.061 394.672 231.253 393.824 228.917 393.824C226.581 393.824 224.757 394.672 223.445 396.368C222.133 398.032 221.477 400.336 221.477 403.28C221.477 406.224 222.133 408.544 223.445 410.24C224.757 411.904 226.581 412.736 228.917 412.736ZM250.366 416L242.494 390.56H246.91L252.862 411.776L258.91 390.56H263.23L269.278 411.776L275.278 390.56H279.694L271.822 416H266.734L261.07 396.656L255.406 416H250.366ZM293.276 416.576C290.908 416.576 288.844 416.032 287.084 414.944C285.356 413.856 284.012 412.32 283.052 410.336C282.092 408.32 281.612 405.968 281.612 403.28C281.612 400.592 282.092 398.256 283.052 396.272C284.012 394.288 285.356 392.752 287.084 391.664C288.844 390.544 290.908 389.984 293.276 389.984C295.228 389.984 296.956 390.336 298.46 391.04C299.996 391.712 301.244 392.704 302.204 394.016C303.164 395.328 303.788 396.928 304.076 398.816L299.852 399.104C299.564 397.408 298.828 396.112 297.644 395.216C296.46 394.288 295.004 393.824 293.276 393.824C290.94 393.824 289.116 394.672 287.804 396.368C286.492 398.032 285.836 400.336 285.836 403.28C285.836 406.224 286.492 408.544 287.804 410.24C289.116 411.904 290.94 412.736 293.276 412.736C295.004 412.736 296.46 412.256 297.644 411.296C298.828 410.336 299.564 408.896 299.852 406.976L304.076 407.264C303.788 409.152 303.164 410.8 302.204 412.208C301.244 413.584 299.996 414.656 298.46 415.424C296.956 416.192 295.228 416.576 293.276 416.576ZM316.595 416.576C313.971 416.576 311.875 415.968 310.307 414.752C308.771 413.536 308.003 411.84 308.003 409.664C308.003 407.488 308.643 405.776 309.923 404.528C311.203 403.28 313.235 402.4 316.019 401.888L325.043 400.208C325.043 398.064 324.531 396.464 323.507 395.408C322.515 394.352 321.011 393.824 318.995 393.824C317.235 393.824 315.843 394.224 314.819 395.024C313.795 395.792 313.091 396.912 312.707 398.384L308.435 398.048C308.915 395.648 310.067 393.712 311.891 392.24C313.747 390.736 316.115 389.984 318.995 389.984C322.259 389.984 324.755 390.912 326.483 392.768C328.211 394.592 329.075 397.12 329.075 400.352V410.864C329.075 411.44 329.171 411.856 329.363 412.112C329.587 412.336 329.939 412.448 330.419 412.448H331.427V416C331.299 416.032 331.091 416.048 330.803 416.048C330.515 416.08 330.211 416.096 329.891 416.096C328.739 416.096 327.795 415.92 327.059 415.568C326.355 415.184 325.843 414.608 325.523 413.84C325.203 413.04 325.043 412 325.043 410.72L325.523 410.816C325.299 411.904 324.755 412.896 323.891 413.792C323.027 414.656 321.955 415.344 320.675 415.856C319.395 416.336 318.035 416.576 316.595 416.576ZM316.979 413.024C318.675 413.024 320.115 412.704 321.299 412.064C322.515 411.392 323.443 410.496 324.083 409.376C324.723 408.224 325.043 406.944 325.043 405.536V403.712L316.787 405.248C315.059 405.568 313.859 406.064 313.187 406.736C312.547 407.376 312.227 408.224 312.227 409.28C312.227 410.464 312.643 411.392 313.475 412.064C314.339 412.704 315.507 413.024 316.979 413.024ZM345.151 416.576C342.879 416.576 340.943 416.208 339.343 415.472C337.775 414.736 336.543 413.728 335.647 412.448C334.783 411.136 334.287 409.648 334.159 407.984L338.383 407.696C338.639 409.232 339.295 410.464 340.351 411.392C341.407 412.288 343.007 412.736 345.151 412.736C346.879 412.736 348.255 412.464 349.279 411.92C350.335 411.344 350.863 410.432 350.863 409.184C350.863 408.512 350.703 407.952 350.383 407.504C350.063 407.056 349.439 406.672 348.511 406.352C347.583 406 346.207 405.664 344.383 405.344C341.951 404.896 340.031 404.352 338.623 403.712C337.247 403.04 336.255 402.224 335.647 401.264C335.071 400.272 334.783 399.104 334.783 397.76C334.783 395.488 335.615 393.632 337.279 392.192C338.943 390.72 341.311 389.984 344.383 389.984C346.463 389.984 348.207 390.368 349.615 391.136C351.055 391.872 352.175 392.864 352.975 394.112C353.807 395.328 354.351 396.672 354.607 398.144L350.383 398.432C350.191 397.536 349.839 396.752 349.327 396.08C348.815 395.376 348.143 394.832 347.311 394.448C346.479 394.032 345.487 393.824 344.335 393.824C342.511 393.824 341.167 394.176 340.303 394.88C339.439 395.584 339.007 396.48 339.007 397.568C339.007 398.4 339.199 399.088 339.583 399.632C339.999 400.144 340.655 400.576 341.551 400.928C342.447 401.248 343.647 401.536 345.151 401.792C347.743 402.24 349.759 402.784 351.199 403.424C352.639 404.064 353.647 404.848 354.223 405.776C354.799 406.704 355.087 407.84 355.087 409.184C355.087 410.752 354.639 412.096 353.743 413.216C352.879 414.304 351.695 415.136 350.191 415.712C348.719 416.288 347.039 416.576 345.151 416.576ZM360.59 416V390.56H364.622V416H360.59ZM360.494 386.576V381.872H364.718V386.576H360.494ZM372.778 416V390.56H376.474L376.618 397.04L376.138 396.608C376.458 395.104 377.018 393.872 377.818 392.912C378.618 391.92 379.578 391.184 380.698 390.704C381.85 390.224 383.082 389.984 384.394 389.984C386.346 389.984 387.946 390.416 389.194 391.28C390.474 392.144 391.418 393.312 392.026 394.784C392.666 396.224 392.986 397.84 392.986 399.632V416H388.954V400.784C388.954 399.216 388.762 397.904 388.378 396.848C388.026 395.76 387.45 394.944 386.65 394.4C385.85 393.824 384.81 393.536 383.53 393.536C381.578 393.536 379.962 394.16 378.682 395.408C377.434 396.624 376.81 398.416 376.81 400.784V416H372.778ZM409.754 423.776C407.93 423.776 406.282 423.472 404.81 422.864C403.338 422.256 402.106 421.392 401.114 420.272C400.122 419.152 399.45 417.856 399.098 416.384L403.322 416.096C403.706 417.28 404.378 418.208 405.338 418.88C406.33 419.584 407.802 419.936 409.754 419.936C412.058 419.936 413.818 419.472 415.034 418.544C416.282 417.616 416.906 416.224 416.906 414.368V410.24C416.298 411.584 415.322 412.656 413.978 413.456C412.634 414.256 411.13 414.656 409.466 414.656C407.322 414.656 405.402 414.128 403.706 413.072C402.042 412.016 400.73 410.56 399.77 408.704C398.842 406.848 398.378 404.72 398.378 402.32C398.378 399.888 398.842 397.76 399.77 395.936C400.698 394.08 401.978 392.624 403.61 391.568C405.274 390.512 407.162 389.984 409.274 389.984C411.066 389.984 412.666 390.4 414.074 391.232C415.514 392.064 416.522 393.184 417.098 394.592V390.56H420.938V414.272C420.938 416.256 420.49 417.952 419.594 419.36C418.698 420.8 417.418 421.888 415.754 422.624C414.09 423.392 412.09 423.776 409.754 423.776ZM409.658 410.816C411.834 410.816 413.578 410.064 414.89 408.56C416.202 407.024 416.874 404.944 416.906 402.32C416.938 400.56 416.65 399.056 416.042 397.808C415.466 396.528 414.618 395.552 413.498 394.88C412.41 394.176 411.13 393.824 409.658 393.824C407.418 393.824 405.674 394.592 404.426 396.128C403.21 397.632 402.602 399.696 402.602 402.32C402.602 404.944 403.226 407.024 404.474 408.56C405.754 410.064 407.482 410.816 409.658 410.816ZM440.606 423.2V390.56H444.35L444.446 396.032L443.87 395.744C444.51 393.856 445.566 392.432 447.038 391.472C448.542 390.48 450.27 389.984 452.222 389.984C454.75 389.984 456.814 390.608 458.414 391.856C460.046 393.104 461.246 394.736 462.014 396.752C462.814 398.768 463.214 400.944 463.214 403.28C463.214 405.616 462.814 407.792 462.014 409.808C461.246 411.824 460.046 413.456 458.414 414.704C456.814 415.952 454.75 416.576 452.222 416.576C450.91 416.576 449.678 416.352 448.526 415.904C447.406 415.456 446.446 414.832 445.646 414.032C444.878 413.232 444.35 412.288 444.062 411.2L444.638 410.528V423.2H440.606ZM451.838 412.736C454.046 412.736 455.79 411.904 457.07 410.24C458.35 408.576 458.99 406.256 458.99 403.28C458.99 400.304 458.35 397.984 457.07 396.32C455.79 394.656 454.046 393.824 451.838 393.824C450.366 393.824 449.086 394.176 447.998 394.88C446.942 395.584 446.11 396.64 445.502 398.048C444.926 399.456 444.638 401.2 444.638 403.28C444.638 405.36 444.926 407.104 445.502 408.512C446.078 409.92 446.91 410.976 447.998 411.68C449.086 412.384 450.366 412.736 451.838 412.736ZM468.684 416V390.56H472.236L472.428 396.992L472.044 396.848C472.364 394.672 473.052 393.088 474.108 392.096C475.196 391.072 476.636 390.56 478.428 390.56H480.924V394.4H478.476C477.196 394.4 476.124 394.64 475.26 395.12C474.428 395.568 473.788 396.256 473.34 397.184C472.924 398.08 472.716 399.232 472.716 400.64V416H468.684ZM494.885 416.576C492.549 416.576 490.501 416.032 488.741 414.944C486.981 413.856 485.621 412.32 484.661 410.336C483.701 408.32 483.221 405.968 483.221 403.28C483.221 400.56 483.701 398.208 484.661 396.224C485.621 394.24 486.981 392.704 488.741 391.616C490.501 390.528 492.549 389.984 494.885 389.984C497.221 389.984 499.253 390.528 500.981 391.616C502.741 392.704 504.101 394.24 505.061 396.224C506.021 398.208 506.501 400.56 506.501 403.28C506.501 405.968 506.021 408.32 505.061 410.336C504.101 412.32 502.741 413.856 500.981 414.944C499.253 416.032 497.221 416.576 494.885 416.576ZM494.885 412.736C497.221 412.736 499.029 411.904 500.309 410.24C501.621 408.544 502.277 406.224 502.277 403.28C502.277 400.336 501.621 398.032 500.309 396.368C499.029 394.672 497.221 393.824 494.885 393.824C492.549 393.824 490.725 394.672 489.413 396.368C488.101 398.032 487.445 400.336 487.445 403.28C487.445 406.224 488.101 408.544 489.413 410.24C490.725 411.904 492.549 412.736 494.885 412.736ZM507.916 423.2V419.648H509.98C510.812 419.648 511.484 419.44 511.996 419.024C512.508 418.64 512.764 417.92 512.764 416.864V390.56H516.796V417.056C516.796 419.296 516.3 420.88 515.308 421.808C514.316 422.736 512.668 423.2 510.364 423.2H507.916ZM512.668 386.576V381.872H516.892V386.576H512.668ZM533.932 416.576C531.532 416.576 529.452 416.032 527.692 414.944C525.964 413.856 524.62 412.32 523.66 410.336C522.732 408.32 522.268 405.968 522.268 403.28C522.268 400.592 522.732 398.256 523.66 396.272C524.62 394.288 525.948 392.752 527.644 391.664C529.372 390.544 531.404 389.984 533.74 389.984C535.948 389.984 537.9 390.512 539.596 391.568C541.292 392.592 542.604 394.096 543.532 396.08C544.492 398.064 544.972 400.48 544.972 403.328V404.528H526.492C526.652 407.248 527.372 409.296 528.652 410.672C529.964 412.048 531.724 412.736 533.932 412.736C535.596 412.736 536.956 412.352 538.012 411.584C539.1 410.784 539.852 409.744 540.268 408.464L544.588 408.8C543.916 411.072 542.636 412.944 540.748 414.416C538.892 415.856 536.62 416.576 533.932 416.576ZM526.492 400.976H540.556C540.364 398.512 539.644 396.704 538.396 395.552C537.18 394.4 535.628 393.824 533.74 393.824C531.788 393.824 530.172 394.432 528.892 395.648C527.644 396.832 526.844 398.608 526.492 400.976ZM560.37 416.576C558.002 416.576 555.938 416.032 554.178 414.944C552.45 413.856 551.106 412.32 550.146 410.336C549.186 408.32 548.706 405.968 548.706 403.28C548.706 400.592 549.186 398.256 550.146 396.272C551.106 394.288 552.45 392.752 554.178 391.664C555.938 390.544 558.002 389.984 560.37 389.984C562.322 389.984 564.05 390.336 565.554 391.04C567.09 391.712 568.338 392.704 569.298 394.016C570.258 395.328 570.882 396.928 571.17 398.816L566.946 399.104C566.658 397.408 565.922 396.112 564.738 395.216C563.554 394.288 562.098 393.824 560.37 393.824C558.034 393.824 556.21 394.672 554.898 396.368C553.586 398.032 552.93 400.336 552.93 403.28C552.93 406.224 553.586 408.544 554.898 410.24C556.21 411.904 558.034 412.736 560.37 412.736C562.098 412.736 563.554 412.256 564.738 411.296C565.922 410.336 566.658 408.896 566.946 406.976L571.17 407.264C570.882 409.152 570.258 410.8 569.298 412.208C568.338 413.584 567.09 414.656 565.554 415.424C564.05 416.192 562.322 416.576 560.37 416.576ZM584.496 416C582.192 416 580.48 415.472 579.36 414.416C578.272 413.36 577.728 411.712 577.728 409.472V384.608H581.76V409.376C581.76 410.528 582.016 411.328 582.528 411.776C583.04 412.224 583.824 412.448 584.88 412.448H588.528V416H584.496ZM573.984 394.112V390.56H588.528V394.112H573.984ZM602.495 416.576C600.223 416.576 598.287 416.208 596.687 415.472C595.119 414.736 593.887 413.728 592.991 412.448C592.127 411.136 591.631 409.648 591.503 407.984L595.727 407.696C595.983 409.232 596.639 410.464 597.695 411.392C598.751 412.288 600.351 412.736 602.495 412.736C604.223 412.736 605.599 412.464 606.623 411.92C607.679 411.344 608.207 410.432 608.207 409.184C608.207 408.512 608.047 407.952 607.727 407.504C607.407 407.056 606.783 406.672 605.855 406.352C604.927 406 603.551 405.664 601.727 405.344C599.295 404.896 597.375 404.352 595.967 403.712C594.591 403.04 593.599 402.224 592.991 401.264C592.415 400.272 592.127 399.104 592.127 397.76C592.127 395.488 592.959 393.632 594.623 392.192C596.287 390.72 598.655 389.984 601.727 389.984C603.807 389.984 605.551 390.368 606.959 391.136C608.399 391.872 609.519 392.864 610.319 394.112C611.151 395.328 611.695 396.672 611.951 398.144L607.727 398.432C607.535 397.536 607.183 396.752 606.671 396.08C606.159 395.376 605.487 394.832 604.655 394.448C603.823 394.032 602.831 393.824 601.679 393.824C599.855 393.824 598.511 394.176 597.647 394.88C596.783 395.584 596.351 396.48 596.351 397.568C596.351 398.4 596.543 399.088 596.927 399.632C597.343 400.144 597.999 400.576 598.895 400.928C599.791 401.248 600.991 401.536 602.495 401.792C605.087 402.24 607.103 402.784 608.543 403.424C609.983 404.064 610.991 404.848 611.567 405.776C612.143 406.704 612.431 407.84 612.431 409.184C612.431 410.752 611.983 412.096 611.087 413.216C610.223 414.304 609.039 415.136 607.535 415.712C606.063 416.288 604.383 416.576 602.495 416.576ZM616.819 423.488L619.123 416H616.675V410.576H622.099V415.328L619.219 423.488H616.819ZM649.323 416.576C647.051 416.576 645.115 416.208 643.515 415.472C641.947 414.736 640.715 413.728 639.819 412.448C638.955 411.136 638.459 409.648 638.331 407.984L642.555 407.696C642.811 409.232 643.467 410.464 644.523 411.392C645.579 412.288 647.179 412.736 649.323 412.736C651.051 412.736 652.427 412.464 653.451 411.92C654.507 411.344 655.035 410.432 655.035 409.184C655.035 408.512 654.875 407.952 654.555 407.504C654.235 407.056 653.611 406.672 652.683 406.352C651.755 406 650.379 405.664 648.555 405.344C646.123 404.896 644.203 404.352 642.795 403.712C641.419 403.04 640.427 402.224 639.819 401.264C639.243 400.272 638.955 399.104 638.955 397.76C638.955 395.488 639.787 393.632 641.451 392.192C643.115 390.72 645.483 389.984 648.555 389.984C650.635 389.984 652.379 390.368 653.787 391.136C655.227 391.872 656.347 392.864 657.147 394.112C657.979 395.328 658.523 396.672 658.779 398.144L654.555 398.432C654.363 397.536 654.011 396.752 653.499 396.08C652.987 395.376 652.315 394.832 651.483 394.448C650.651 394.032 649.659 393.824 648.507 393.824C646.683 393.824 645.339 394.176 644.475 394.88C643.611 395.584 643.179 396.48 643.179 397.568C643.179 398.4 643.371 399.088 643.755 399.632C644.171 400.144 644.827 400.576 645.723 400.928C646.619 401.248 647.819 401.536 649.323 401.792C651.915 402.24 653.931 402.784 655.371 403.424C656.811 404.064 657.819 404.848 658.395 405.776C658.971 406.704 659.259 407.84 659.259 409.184C659.259 410.752 658.811 412.096 657.915 413.216C657.051 414.304 655.867 415.136 654.363 415.712C652.891 416.288 651.211 416.576 649.323 416.576ZM664.762 416V381.92H668.794V404.24L681.178 390.56H686.554L676.522 401.36L686.986 416H682.09L673.786 404.096L668.794 409.376V416H664.762ZM690.684 416V390.56H694.716V416H690.684ZM690.588 386.576V381.872H694.812V386.576H690.588ZM706.926 416C705.454 416 704.254 415.616 703.326 414.848C702.398 414.08 701.934 412.864 701.934 411.2V381.92H705.966V410.864C705.966 411.376 706.094 411.776 706.35 412.064C706.638 412.32 707.038 412.448 707.55 412.448H709.758V416H706.926ZM719.254 416C717.782 416 716.582 415.616 715.654 414.848C714.726 414.08 714.262 412.864 714.262 411.2V381.92H718.294V410.864C718.294 411.376 718.422 411.776 718.678 412.064C718.966 412.32 719.366 412.448 719.878 412.448H722.086V416H719.254ZM736.042 416.576C733.77 416.576 731.834 416.208 730.234 415.472C728.666 414.736 727.434 413.728 726.538 412.448C725.674 411.136 725.178 409.648 725.05 407.984L729.273 407.696C729.53 409.232 730.186 410.464 731.242 411.392C732.298 412.288 733.898 412.736 736.042 412.736C737.77 412.736 739.146 412.464 740.17 411.92C741.226 411.344 741.754 410.432 741.754 409.184C741.754 408.512 741.594 407.952 741.274 407.504C740.954 407.056 740.33 406.672 739.402 406.352C738.474 406 737.098 405.664 735.273 405.344C732.842 404.896 730.922 404.352 729.514 403.712C728.138 403.04 727.146 402.224 726.538 401.264C725.962 400.272 725.674 399.104 725.674 397.76C725.674 395.488 726.506 393.632 728.17 392.192C729.834 390.72 732.202 389.984 735.273 389.984C737.354 389.984 739.098 390.368 740.506 391.136C741.946 391.872 743.066 392.864 743.866 394.112C744.698 395.328 745.242 396.672 745.498 398.144L741.274 398.432C741.082 397.536 740.73 396.752 740.218 396.08C739.706 395.376 739.034 394.832 738.202 394.448C737.37 394.032 736.378 393.824 735.226 393.824C733.402 393.824 732.058 394.176 731.194 394.88C730.33 395.584 729.898 396.48 729.898 397.568C729.898 398.4 730.09 399.088 730.474 399.632C730.89 400.144 731.546 400.576 732.442 400.928C733.338 401.248 734.538 401.536 736.042 401.792C738.634 402.24 740.65 402.784 742.09 403.424C743.53 404.064 744.538 404.848 745.114 405.776C745.69 406.704 745.978 407.84 745.978 409.184C745.978 410.752 745.53 412.096 744.634 413.216C743.77 414.304 742.586 415.136 741.082 415.712C739.61 416.288 737.93 416.576 736.042 416.576ZM750.365 423.488L752.669 416H750.221V410.576H755.645V415.328L752.765 423.488H750.365ZM780.47 416.576C777.846 416.576 775.75 415.968 774.182 414.752C772.646 413.536 771.878 411.84 771.878 409.664C771.878 407.488 772.518 405.776 773.798 404.528C775.078 403.28 777.11 402.4 779.894 401.888L788.918 400.208C788.918 398.064 788.406 396.464 787.382 395.408C786.39 394.352 784.886 393.824 782.87 393.824C781.11 393.824 779.718 394.224 778.694 395.024C777.67 395.792 776.966 396.912 776.582 398.384L772.31 398.048C772.79 395.648 773.942 393.712 775.766 392.24C777.622 390.736 779.99 389.984 782.87 389.984C786.134 389.984 788.63 390.912 790.358 392.768C792.086 394.592 792.95 397.12 792.95 400.352V410.864C792.95 411.44 793.046 411.856 793.238 412.112C793.462 412.336 793.814 412.448 794.294 412.448H795.302V416C795.174 416.032 794.966 416.048 794.678 416.048C794.39 416.08 794.086 416.096 793.766 416.096C792.614 416.096 791.67 415.92 790.934 415.568C790.23 415.184 789.718 414.608 789.398 413.84C789.078 413.04 788.918 412 788.918 410.72L789.398 410.816C789.174 411.904 788.63 412.896 787.766 413.792C786.902 414.656 785.83 415.344 784.55 415.856C783.27 416.336 781.91 416.576 780.47 416.576ZM780.854 413.024C782.55 413.024 783.99 412.704 785.174 412.064C786.39 411.392 787.318 410.496 787.958 409.376C788.598 408.224 788.918 406.944 788.918 405.536V403.712L780.662 405.248C778.934 405.568 777.734 406.064 777.062 406.736C776.422 407.376 776.102 408.224 776.102 409.28C776.102 410.464 776.518 411.392 777.35 412.064C778.214 412.704 779.382 413.024 780.854 413.024ZM799.856 416V390.56H803.552L803.696 397.04L803.216 396.608C803.536 395.104 804.096 393.872 804.896 392.912C805.696 391.92 806.656 391.184 807.776 390.704C808.928 390.224 810.16 389.984 811.472 389.984C813.424 389.984 815.024 390.416 816.272 391.28C817.552 392.144 818.496 393.312 819.104 394.784C819.744 396.224 820.064 397.84 820.064 399.632V416H816.032V400.784C816.032 399.216 815.84 397.904 815.456 396.848C815.104 395.76 814.528 394.944 813.728 394.4C812.928 393.824 811.888 393.536 810.608 393.536C808.656 393.536 807.04 394.16 805.76 395.408C804.512 396.624 803.888 398.416 803.888 400.784V416H799.856ZM836.208 416.576C834 416.576 832.08 416.032 830.448 414.944C828.848 413.856 827.616 412.32 826.752 410.336C825.888 408.352 825.456 406 825.456 403.28C825.456 400.56 825.888 398.208 826.752 396.224C827.616 394.24 828.848 392.704 830.448 391.616C832.08 390.528 834 389.984 836.208 389.984C837.904 389.984 839.456 390.352 840.864 391.088C842.272 391.792 843.328 392.8 844.032 394.112V381.92H848.064V416H844.416L844.272 412.16C843.568 413.536 842.496 414.624 841.056 415.424C839.616 416.192 838 416.576 836.208 416.576ZM837.024 412.736C838.528 412.736 839.792 412.352 840.816 411.584C841.872 410.816 842.672 409.728 843.216 408.32C843.76 406.88 844.032 405.2 844.032 403.28C844.032 401.296 843.76 399.6 843.216 398.192C842.672 396.784 841.872 395.712 840.816 394.976C839.792 394.208 838.528 393.824 837.024 393.824C834.784 393.824 832.992 394.672 831.648 396.368C830.336 398.032 829.68 400.336 829.68 403.28C829.68 406.192 830.336 408.496 831.648 410.192C832.992 411.888 834.784 412.736 837.024 412.736ZM318.45 478.576C316.242 478.576 314.322 478.032 312.69 476.944C311.09 475.856 309.858 474.32 308.994 472.336C308.13 470.352 307.698 468 307.698 465.28C307.698 462.56 308.13 460.208 308.994 458.224C309.858 456.24 311.09 454.704 312.69 453.616C314.322 452.528 316.242 451.984 318.45 451.984C320.146 451.984 321.698 452.352 323.106 453.088C324.514 453.792 325.57 454.8 326.274 456.112V443.92H330.306V478H326.658L326.514 474.16C325.81 475.536 324.738 476.624 323.298 477.424C321.858 478.192 320.242 478.576 318.45 478.576ZM319.266 474.736C320.77 474.736 322.034 474.352 323.058 473.584C324.114 472.816 324.914 471.728 325.458 470.32C326.002 468.88 326.274 467.2 326.274 465.28C326.274 463.296 326.002 461.6 325.458 460.192C324.914 458.784 324.114 457.712 323.058 456.976C322.034 456.208 320.77 455.824 319.266 455.824C317.026 455.824 315.234 456.672 313.89 458.368C312.578 460.032 311.922 462.336 311.922 465.28C311.922 468.192 312.578 470.496 313.89 472.192C315.234 473.888 317.026 474.736 319.266 474.736ZM347.44 478.576C345.04 478.576 342.96 478.032 341.2 476.944C339.472 475.856 338.128 474.32 337.168 472.336C336.24 470.32 335.776 467.968 335.776 465.28C335.776 462.592 336.24 460.256 337.168 458.272C338.128 456.288 339.456 454.752 341.152 453.664C342.88 452.544 344.912 451.984 347.248 451.984C349.456 451.984 351.408 452.512 353.104 453.568C354.8 454.592 356.112 456.096 357.04 458.08C358 460.064 358.48 462.48 358.48 465.328V466.528H340C340.16 469.248 340.88 471.296 342.16 472.672C343.472 474.048 345.232 474.736 347.44 474.736C349.104 474.736 350.464 474.352 351.52 473.584C352.608 472.784 353.36 471.744 353.776 470.464L358.096 470.8C357.424 473.072 356.144 474.944 354.256 476.416C352.4 477.856 350.128 478.576 347.44 478.576ZM340 462.976H354.064C353.872 460.512 353.152 458.704 351.904 457.552C350.688 456.4 349.136 455.824 347.248 455.824C345.296 455.824 343.68 456.432 342.4 457.648C341.152 458.832 340.352 460.608 340 462.976ZM373.206 478.576C370.934 478.576 368.998 478.208 367.398 477.472C365.83 476.736 364.598 475.728 363.702 474.448C362.838 473.136 362.342 471.648 362.214 469.984L366.438 469.696C366.694 471.232 367.35 472.464 368.406 473.392C369.462 474.288 371.062 474.736 373.206 474.736C374.934 474.736 376.31 474.464 377.334 473.92C378.39 473.344 378.918 472.432 378.918 471.184C378.918 470.512 378.758 469.952 378.438 469.504C378.118 469.056 377.494 468.672 376.566 468.352C375.638 468 374.262 467.664 372.438 467.344C370.006 466.896 368.086 466.352 366.678 465.712C365.302 465.04 364.31 464.224 363.702 463.264C363.126 462.272 362.838 461.104 362.838 459.76C362.838 457.488 363.67 455.632 365.334 454.192C366.998 452.72 369.366 451.984 372.438 451.984C374.518 451.984 376.262 452.368 377.67 453.136C379.11 453.872 380.23 454.864 381.03 456.112C381.862 457.328 382.406 458.672 382.662 460.144L378.438 460.432C378.246 459.536 377.894 458.752 377.382 458.08C376.87 457.376 376.198 456.832 375.366 456.448C374.534 456.032 373.542 455.824 372.39 455.824C370.566 455.824 369.222 456.176 368.358 456.88C367.494 457.584 367.062 458.48 367.062 459.568C367.062 460.4 367.254 461.088 367.638 461.632C368.054 462.144 368.71 462.576 369.606 462.928C370.502 463.248 371.702 463.536 373.206 463.792C375.798 464.24 377.814 464.784 379.254 465.424C380.694 466.064 381.702 466.848 382.278 467.776C382.854 468.704 383.142 469.84 383.142 471.184C383.142 472.752 382.694 474.096 381.798 475.216C380.934 476.304 379.75 477.136 378.246 477.712C376.774 478.288 375.094 478.576 373.206 478.576ZM388.645 478V452.56H392.677V478H388.645ZM388.549 448.576V443.872H392.773V448.576H388.549ZM409.543 485.776C407.719 485.776 406.071 485.472 404.599 484.864C403.127 484.256 401.895 483.392 400.903 482.272C399.911 481.152 399.239 479.856 398.887 478.384L403.111 478.096C403.495 479.28 404.167 480.208 405.127 480.88C406.119 481.584 407.591 481.936 409.543 481.936C411.847 481.936 413.607 481.472 414.823 480.544C416.071 479.616 416.695 478.224 416.695 476.368V472.24C416.087 473.584 415.111 474.656 413.767 475.456C412.423 476.256 410.919 476.656 409.255 476.656C407.111 476.656 405.191 476.128 403.495 475.072C401.831 474.016 400.519 472.56 399.559 470.704C398.631 468.848 398.167 466.72 398.167 464.32C398.167 461.888 398.631 459.76 399.559 457.936C400.487 456.08 401.767 454.624 403.399 453.568C405.063 452.512 406.951 451.984 409.063 451.984C410.855 451.984 412.455 452.4 413.863 453.232C415.303 454.064 416.311 455.184 416.887 456.592V452.56H420.727V476.272C420.727 478.256 420.279 479.952 419.383 481.36C418.487 482.8 417.207 483.888 415.543 484.624C413.879 485.392 411.879 485.776 409.543 485.776ZM409.447 472.816C411.623 472.816 413.367 472.064 414.679 470.56C415.991 469.024 416.663 466.944 416.695 464.32C416.727 462.56 416.439 461.056 415.831 459.808C415.255 458.528 414.407 457.552 413.287 456.88C412.199 456.176 410.919 455.824 409.447 455.824C407.207 455.824 405.463 456.592 404.215 458.128C402.999 459.632 402.391 461.696 402.391 464.32C402.391 466.944 403.015 469.024 404.263 470.56C405.543 472.064 407.271 472.816 409.447 472.816ZM428.395 478V452.56H432.091L432.235 459.04L431.755 458.608C432.075 457.104 432.635 455.872 433.435 454.912C434.235 453.92 435.195 453.184 436.315 452.704C437.467 452.224 438.699 451.984 440.011 451.984C441.963 451.984 443.563 452.416 444.811 453.28C446.091 454.144 447.035 455.312 447.643 456.784C448.283 458.224 448.603 459.84 448.603 461.632V478H444.571V462.784C444.571 461.216 444.379 459.904 443.995 458.848C443.643 457.76 443.067 456.944 442.267 456.4C441.467 455.824 440.427 455.536 439.147 455.536C437.195 455.536 435.579 456.16 434.299 457.408C433.051 458.624 432.427 460.416 432.427 462.784V478H428.395ZM468.285 485.2V452.56H472.029L472.125 458.032L471.549 457.744C472.189 455.856 473.245 454.432 474.717 453.472C476.221 452.48 477.949 451.984 479.901 451.984C482.429 451.984 484.493 452.608 486.093 453.856C487.725 455.104 488.925 456.736 489.693 458.752C490.493 460.768 490.893 462.944 490.893 465.28C490.893 467.616 490.493 469.792 489.693 471.808C488.925 473.824 487.725 475.456 486.093 476.704C484.493 477.952 482.429 478.576 479.901 478.576C478.589 478.576 477.357 478.352 476.205 477.904C475.085 477.456 474.125 476.832 473.325 476.032C472.557 475.232 472.029 474.288 471.741 473.2L472.317 472.528V485.2H468.285ZM479.517 474.736C481.725 474.736 483.469 473.904 484.749 472.24C486.029 470.576 486.669 468.256 486.669 465.28C486.669 462.304 486.029 459.984 484.749 458.32C483.469 456.656 481.725 455.824 479.517 455.824C478.045 455.824 476.765 456.176 475.677 456.88C474.621 457.584 473.789 458.64 473.181 460.048C472.605 461.456 472.317 463.2 472.317 465.28C472.317 467.36 472.605 469.104 473.181 470.512C473.757 471.92 474.589 472.976 475.677 473.68C476.765 474.384 478.045 474.736 479.517 474.736ZM496.363 478V443.92H500.395V458.176L499.915 458.08C500.235 456.672 500.779 455.52 501.547 454.624C502.315 453.728 503.259 453.072 504.379 452.656C505.499 452.208 506.731 451.984 508.075 451.984C509.899 451.984 511.435 452.4 512.683 453.232C513.963 454.032 514.923 455.168 515.563 456.64C516.235 458.08 516.571 459.744 516.571 461.632V478H512.539V462.784C512.539 460.32 512.091 458.496 511.195 457.312C510.331 456.128 509.003 455.536 507.211 455.536C505.163 455.536 503.515 456.16 502.267 457.408C501.019 458.656 500.395 460.464 500.395 462.832V478H496.363ZM523.785 478V452.56H527.817V478H523.785ZM523.689 448.576V443.872H527.913V448.576H523.689ZM540.027 478C538.555 478 537.355 477.616 536.427 476.848C535.499 476.08 535.035 474.864 535.035 473.2V443.92H539.067V472.864C539.067 473.376 539.195 473.776 539.451 474.064C539.739 474.32 540.139 474.448 540.651 474.448H542.859V478H540.027ZM557.487 478.576C555.151 478.576 553.103 478.032 551.343 476.944C549.583 475.856 548.223 474.32 547.263 472.336C546.303 470.32 545.823 467.968 545.823 465.28C545.823 462.56 546.303 460.208 547.263 458.224C548.223 456.24 549.583 454.704 551.343 453.616C553.103 452.528 555.151 451.984 557.487 451.984C559.823 451.984 561.855 452.528 563.583 453.616C565.343 454.704 566.703 456.24 567.663 458.224C568.623 460.208 569.103 462.56 569.103 465.28C569.103 467.968 568.623 470.32 567.663 472.336C566.703 474.32 565.343 475.856 563.583 476.944C561.855 478.032 559.823 478.576 557.487 478.576ZM557.487 474.736C559.823 474.736 561.631 473.904 562.911 472.24C564.223 470.544 564.879 468.224 564.879 465.28C564.879 462.336 564.223 460.032 562.911 458.368C561.631 456.672 559.823 455.824 557.487 455.824C555.151 455.824 553.327 456.672 552.015 458.368C550.703 460.032 550.047 462.336 550.047 465.28C550.047 468.224 550.703 470.544 552.015 472.24C553.327 473.904 555.151 474.736 557.487 474.736ZM583.862 478.576C581.59 478.576 579.654 478.208 578.054 477.472C576.486 476.736 575.254 475.728 574.358 474.448C573.494 473.136 572.998 471.648 572.87 469.984L577.094 469.696C577.35 471.232 578.006 472.464 579.062 473.392C580.118 474.288 581.718 474.736 583.862 474.736C585.59 474.736 586.966 474.464 587.99 473.92C589.046 473.344 589.574 472.432 589.574 471.184C589.574 470.512 589.414 469.952 589.094 469.504C588.774 469.056 588.15 468.672 587.222 468.352C586.294 468 584.918 467.664 583.094 467.344C580.662 466.896 578.742 466.352 577.334 465.712C575.958 465.04 574.966 464.224 574.358 463.264C573.782 462.272 573.494 461.104 573.494 459.76C573.494 457.488 574.326 455.632 575.99 454.192C577.654 452.72 580.022 451.984 583.094 451.984C585.174 451.984 586.918 452.368 588.326 453.136C589.766 453.872 590.886 454.864 591.686 456.112C592.518 457.328 593.062 458.672 593.318 460.144L589.094 460.432C588.902 459.536 588.55 458.752 588.038 458.08C587.526 457.376 586.854 456.832 586.022 456.448C585.19 456.032 584.198 455.824 583.046 455.824C581.222 455.824 579.878 456.176 579.014 456.88C578.15 457.584 577.718 458.48 577.718 459.568C577.718 460.4 577.91 461.088 578.294 461.632C578.71 462.144 579.366 462.576 580.262 462.928C581.158 463.248 582.358 463.536 583.862 463.792C586.454 464.24 588.47 464.784 589.91 465.424C591.35 466.064 592.358 466.848 592.934 467.776C593.51 468.704 593.798 469.84 593.798 471.184C593.798 472.752 593.35 474.096 592.454 475.216C591.59 476.304 590.406 477.136 588.902 477.712C587.43 478.288 585.75 478.576 583.862 478.576ZM609.237 478.576C606.901 478.576 604.853 478.032 603.093 476.944C601.333 475.856 599.973 474.32 599.013 472.336C598.053 470.32 597.573 467.968 597.573 465.28C597.573 462.56 598.053 460.208 599.013 458.224C599.973 456.24 601.333 454.704 603.093 453.616C604.853 452.528 606.901 451.984 609.237 451.984C611.573 451.984 613.605 452.528 615.333 453.616C617.093 454.704 618.453 456.24 619.413 458.224C620.373 460.208 620.853 462.56 620.853 465.28C620.853 467.968 620.373 470.32 619.413 472.336C618.453 474.32 617.093 475.856 615.333 476.944C613.605 478.032 611.573 478.576 609.237 478.576ZM609.237 474.736C611.573 474.736 613.381 473.904 614.661 472.24C615.973 470.544 616.629 468.224 616.629 465.28C616.629 462.336 615.973 460.032 614.661 458.368C613.381 456.672 611.573 455.824 609.237 455.824C606.901 455.824 605.077 456.672 603.765 458.368C602.453 460.032 601.797 462.336 601.797 465.28C601.797 468.224 602.453 470.544 603.765 472.24C605.077 473.904 606.901 474.736 609.237 474.736ZM626.348 485.2V452.56H630.092L630.188 458.032L629.612 457.744C630.252 455.856 631.308 454.432 632.78 453.472C634.284 452.48 636.012 451.984 637.964 451.984C640.492 451.984 642.556 452.608 644.156 453.856C645.788 455.104 646.988 456.736 647.756 458.752C648.556 460.768 648.956 462.944 648.956 465.28C648.956 467.616 648.556 469.792 647.756 471.808C646.988 473.824 645.788 475.456 644.156 476.704C642.556 477.952 640.492 478.576 637.964 478.576C636.652 478.576 635.42 478.352 634.268 477.904C633.148 477.456 632.188 476.832 631.388 476.032C630.62 475.232 630.092 474.288 629.804 473.2L630.38 472.528V485.2H626.348ZM637.58 474.736C639.788 474.736 641.532 473.904 642.812 472.24C644.092 470.576 644.732 468.256 644.732 465.28C644.732 462.304 644.092 459.984 642.812 458.32C641.532 456.656 639.788 455.824 637.58 455.824C636.108 455.824 634.828 456.176 633.74 456.88C632.684 457.584 631.852 458.64 631.244 460.048C630.668 461.456 630.38 463.2 630.38 465.28C630.38 467.36 630.668 469.104 631.244 470.512C631.82 471.92 632.652 472.976 633.74 473.68C634.828 474.384 636.108 474.736 637.58 474.736ZM654.426 478V443.92H658.458V458.176L657.978 458.08C658.298 456.672 658.842 455.52 659.61 454.624C660.378 453.728 661.322 453.072 662.442 452.656C663.562 452.208 664.794 451.984 666.138 451.984C667.962 451.984 669.498 452.4 670.746 453.232C672.026 454.032 672.986 455.168 673.626 456.64C674.298 458.08 674.634 459.744 674.634 461.632V478H670.602V462.784C670.602 460.32 670.154 458.496 669.258 457.312C668.394 456.128 667.066 455.536 665.274 455.536C663.226 455.536 661.578 456.16 660.33 457.408C659.082 458.656 658.458 460.464 658.458 462.832V478H654.426ZM681.78 485.2V481.648H684.708C685.604 481.648 686.26 481.504 686.676 481.216C687.124 480.96 687.46 480.528 687.684 479.92L688.596 477.52H687.204L677.892 452.56H682.308L689.892 473.776L697.14 452.56H701.556L691.236 481.216C690.756 482.592 690.036 483.6 689.076 484.24C688.116 484.88 686.788 485.2 685.092 485.2H681.78ZM701.87 478V472.576H707.294V478H701.87Z" fill="white"/>
<path d="M295.66 258V194.1H321.22C328.9 194.1 334.9 195.96 339.22 199.68C343.6 203.4 345.79 208.5 345.79 214.98C345.79 219.24 344.8 222.96 342.82 226.14C340.9 229.26 338.08 231.69 334.36 233.43C330.7 235.11 326.32 235.95 321.22 235.95H309.34V258H295.66ZM309.34 224.43H320.41C324.01 224.43 326.8 223.65 328.78 222.09C330.76 220.47 331.75 218.1 331.75 214.98C331.75 211.92 330.76 209.61 328.78 208.05C326.86 206.43 324.07 205.62 320.41 205.62H309.34V224.43ZM374.73 259.08C369.81 259.08 365.52 258.06 361.86 256.02C358.2 253.92 355.35 250.98 353.31 247.2C351.27 243.42 350.25 238.98 350.25 233.88C350.25 228.78 351.27 224.37 353.31 220.65C355.35 216.87 358.2 213.93 361.86 211.83C365.52 209.73 369.81 208.68 374.73 208.68C379.65 208.68 383.94 209.73 387.6 211.83C391.26 213.93 394.11 216.87 396.15 220.65C398.19 224.37 399.21 228.78 399.21 233.88C399.21 238.98 398.19 243.42 396.15 247.2C394.11 250.98 391.26 253.92 387.6 256.02C383.94 258.06 379.65 259.08 374.73 259.08ZM374.73 248.73C378.09 248.73 380.7 247.44 382.56 244.86C384.42 242.22 385.35 238.56 385.35 233.88C385.35 229.2 384.42 225.57 382.56 222.99C380.7 220.35 378.09 219.03 374.73 219.03C371.37 219.03 368.76 220.35 366.9 222.99C365.04 225.57 364.11 229.2 364.11 233.88C364.11 238.56 365.04 242.22 366.9 244.86C368.76 247.44 371.37 248.73 374.73 248.73ZM407.616 258V209.76H420.396L420.846 223.8L419.856 223.53C420.636 218.67 422.016 215.16 423.996 213C425.976 210.84 428.706 209.76 432.186 209.76H436.596V220.92H432.186C429.666 220.92 427.596 221.25 425.976 221.91C424.356 222.57 423.126 223.62 422.286 225.06C421.506 226.5 421.116 228.45 421.116 230.91V258H407.616ZM462.928 258C457.948 258 454.288 256.86 451.948 254.58C449.608 252.24 448.438 248.55 448.438 243.51V198.42H461.938V241.89C461.938 244.23 462.418 245.82 463.378 246.66C464.398 247.5 465.898 247.92 467.878 247.92H474.628V258H462.928ZM440.698 219.84V209.76H474.628V219.84H440.698ZM486.576 258V209.13C486.576 204.33 487.866 200.64 490.446 198.06C493.026 195.42 497.046 194.1 502.506 194.1H512.766V204.18H505.386C503.526 204.18 502.176 204.66 501.336 205.62C500.496 206.52 500.076 207.9 500.076 209.76V258H486.576ZM479.556 221.64V211.56H512.046V221.64H479.556ZM540.052 259.08C535.132 259.08 530.842 258.06 527.182 256.02C523.522 253.92 520.672 250.98 518.632 247.2C516.592 243.42 515.572 238.98 515.572 233.88C515.572 228.78 516.592 224.37 518.632 220.65C520.672 216.87 523.522 213.93 527.182 211.83C530.842 209.73 535.132 208.68 540.052 208.68C544.972 208.68 549.262 209.73 552.922 211.83C556.582 213.93 559.432 216.87 561.472 220.65C563.512 224.37 564.532 228.78 564.532 233.88C564.532 238.98 563.512 243.42 561.472 247.2C559.432 250.98 556.582 253.92 552.922 256.02C549.262 258.06 544.972 259.08 540.052 259.08ZM540.052 248.73C543.412 248.73 546.022 247.44 547.882 244.86C549.742 242.22 550.672 238.56 550.672 233.88C550.672 229.2 549.742 225.57 547.882 222.99C546.022 220.35 543.412 219.03 540.052 219.03C536.692 219.03 534.082 220.35 532.222 222.99C530.362 225.57 529.432 229.2 529.432 233.88C529.432 238.56 530.362 242.22 532.222 244.86C534.082 247.44 536.692 248.73 540.052 248.73ZM585.978 258C582.018 258 578.928 257.01 576.708 255.03C574.488 253.05 573.377 249.84 573.377 245.4V194.1H586.878V243.96C586.878 245.4 587.208 246.42 587.868 247.02C588.528 247.62 589.488 247.92 590.748 247.92H593.988V258H585.978ZM600.887 258V209.76H614.387V258H600.887ZM600.617 203.82V193.02H614.567V203.82H600.617ZM647.191 259.08C642.271 259.08 637.981 258.06 634.321 256.02C630.661 253.92 627.811 250.98 625.771 247.2C623.731 243.42 622.711 238.98 622.711 233.88C622.711 228.78 623.731 224.37 625.771 220.65C627.811 216.87 630.661 213.93 634.321 211.83C637.981 209.73 642.271 208.68 647.191 208.68C652.111 208.68 656.401 209.73 660.061 211.83C663.721 213.93 666.571 216.87 668.611 220.65C670.651 224.37 671.671 228.78 671.671 233.88C671.671 238.98 670.651 243.42 668.611 247.2C666.571 250.98 663.721 253.92 660.061 256.02C656.401 258.06 652.111 259.08 647.191 259.08ZM647.191 248.73C650.551 248.73 653.161 247.44 655.021 244.86C656.881 242.22 657.811 238.56 657.811 233.88C657.811 229.2 656.881 225.57 655.021 222.99C653.161 220.35 650.551 219.03 647.191 219.03C643.831 219.03 641.221 220.35 639.361 222.99C637.501 225.57 636.571 229.2 636.571 233.88C636.571 238.56 637.501 242.22 639.361 244.86C641.221 247.44 643.831 248.73 647.191 248.73Z" fill="white"/>
<defs>
<filter id="filter1_f_14_23" x="-259.528" y="-276.746" width="1532.43" height="1311.9" filterUnits="userSpaceOnUse" color-interpolation-filters="sRGB">
<feFlood flood-opacity="0" result="BackgroundImageFix"/>
<feBlend mode="normal" in="SourceGraphic" in2="BackgroundImageFix" result="shape"/>
<feGaussianBlur stdDeviation="59.95" result="effect1_foregroundBlur_14_23"/>
</filter>
<linearGradient id="paint0_linear_14_23" x1="1014" y1="9.49995" x2="-2.10865e-05" y2="659" gradientUnits="userSpaceOnUse">
<stop stop-color="#171717"/>
<stop offset="0.0872262" stop-color="#171717"/>
</linearGradient>
<clipPath id="clip0_14_23">
<rect width="1014" height="659" fill="white"/>
</clipPath>
</defs>
</svg>
